<svg width="2500" height="2500" viewBox="0 0 2500 2500" fill="none" xmlns="http://www.w3.org/2000/svg">
<path d="M547.8 1884.39L528.28 1905.52C519.1 1915.37 503.72 1915.98 493.87 1906.88L472.74 1887.37C462.89 1878.27 462.28 1862.89 471.38 1853.04L490.89 1831.83C499.99 1821.98 515.37 1821.37 525.3 1830.47L546.43 1850.07C556.29 1859.16 556.9 1874.54 547.8 1884.39ZM593.1 773.1L583.6 783.39C579.13 788.19 571.64 788.48 566.84 784.05L556.55 774.55C551.75 770.12 551.46 762.63 555.89 757.83L565.39 747.5C569.82 742.7 577.31 742.41 582.15 746.84L592.44 756.38C597.24 760.81 597.53 768.3 593.1 773.1ZM781.92 648.62L772.42 658.91C767.95 663.71 760.46 664 755.66 659.57L745.37 650.07C740.57 645.64 740.28 638.15 744.71 633.35L754.21 623.02C758.64 618.22 766.13 617.93 770.97 622.36L781.26 631.9C786.05 636.33 786.35 643.82 781.92 648.62ZM614.85 550.82L605.35 561.11C600.88 565.91 593.39 566.2 588.59 561.77L578.3 552.27C573.5 547.84 573.21 540.35 577.64 535.55L587.14 525.22C591.57 520.42 599.06 520.13 603.9 524.56L614.19 534.1C618.98 538.53 619.28 546.03 614.85 550.82Z" fill="#FFCC3D"/>
<path d="M2135.7 1092.13C2127.05 1150.54 2087.27 1159 2072.65 1186.92L2072.73 1186.96L1961.77 1653.72C1959.36 1680.71 1948.21 1706.21 1930.04 1726.29C1905.68 1753.19 1871.83 1767.26 1837.64 1767.26C1814.51 1767.26 1791.21 1760.82 1770.53 1747.6L1557.42 1611.35L1666.56 1414.17L1782.39 1489.29L1911.42 1098.48C1885.28 975.28 1916.84 931.91 1943.88 978.77C1942.69 971.19 1920.56 956.14 1950.21 933.9C1965 922.71 2013.51 907.25 2041.64 913.86C2083.29 923.69 2141.82 1050.79 2135.7 1092.13Z" fill="white"/>
<path d="M1837.64 1770.64C1813.2 1770.64 1789.37 1763.66 1768.71 1750.45L1555.6 1614.2C1554.1 1613.24 1553.6 1611.28 1554.46 1609.72L1663.6 1412.54C1664.05 1411.72 1664.83 1411.13 1665.74 1410.9C1666.65 1410.67 1667.61 1410.83 1668.4 1411.34L1780.56 1484.07L1907.92 1098.29C1889.52 1010.95 1899.52 964.85 1917.66 957.89C1920.78 956.69 1925.7 956.07 1931.64 959.66C1930.64 951.75 1933.73 942.03 1948.18 931.2C1962.94 920.04 2012.89 903.65 2042.41 910.57C2087.8 921.28 2145.18 1051.16 2139.04 1092.62C2133.24 1131.75 2114.06 1149.01 2097.14 1164.24C2088.78 1171.76 2080.88 1178.87 2076 1187.8L1965.11 1654.25C1962.6 1681.73 1951.04 1708.11 1932.54 1728.55C1908.34 1755.3 1873.75 1770.64 1837.64 1770.64ZM1561.92 1610.21L1772.35 1744.75C1791.92 1757.26 1814.49 1763.87 1837.64 1763.87C1871.84 1763.87 1904.6 1749.34 1927.54 1724.01C1945.11 1704.59 1956.08 1679.52 1958.41 1653.4C1958.42 1653.24 1958.45 1653.08 1958.49 1652.92L2069.3 1186.79C2069.31 1186.29 2069.42 1185.79 2069.66 1185.34C2075.07 1175.01 2083.59 1167.34 2092.62 1159.21C2108.7 1144.75 2126.91 1128.35 2132.35 1091.62C2138.53 1049.9 2078.65 926.06 2040.86 917.14C2013.58 910.74 1965.79 926.34 1952.24 936.58C1931.7 951.99 1938.3 962.39 1943.6 970.75C1945.33 973.48 1946.83 975.85 1947.21 978.23C1947.46 979.84 1946.53 981.4 1945 981.94C1943.46 982.49 1941.76 981.85 1940.95 980.44C1933.77 968 1925.97 961.91 1920.08 964.18C1908.03 968.8 1895.92 1009.15 1914.72 1097.76C1914.85 1098.35 1914.81 1098.95 1914.62 1099.52L1785.6 1490.33C1785.27 1491.32 1784.5 1492.11 1783.51 1492.46C1782.52 1492.81 1781.43 1492.68 1780.55 1492.11L1667.76 1418.97L1561.92 1610.21Z" fill="#030047"/>
<path d="M1230.26 1294.89C1339.47 1294.89 1428 1202.39 1428 1088.28C1428 974.172 1339.47 881.67 1230.26 881.67C1121.05 881.67 1032.52 974.172 1032.52 1088.28C1032.52 1202.39 1121.05 1294.89 1230.26 1294.89Z" fill="#030047"/>
<path d="M1424.16 1182.01C1459.59 1182.01 1488.31 1150.63 1488.31 1111.92C1488.31 1073.21 1459.59 1041.83 1424.16 1041.83C1388.73 1041.83 1360.01 1073.21 1360.01 1111.92C1360.01 1150.63 1388.73 1182.01 1424.16 1182.01Z" fill="#030047"/>
<path d="M1058.47 1296.47C1098.18 1296.47 1130.37 1263.27 1130.37 1222.32C1130.37 1181.37 1098.18 1148.17 1058.47 1148.17C1018.76 1148.17 986.57 1181.37 986.57 1222.32C986.57 1263.27 1018.76 1296.47 1058.47 1296.47Z" fill="#030047"/>
<path d="M1405.08 1296.47C1444.79 1296.47 1476.98 1263.27 1476.98 1222.32C1476.98 1181.37 1444.79 1148.17 1405.08 1148.17C1365.37 1148.17 1333.18 1181.37 1333.18 1222.32C1333.18 1263.27 1365.37 1296.47 1405.08 1296.47Z" fill="#030047"/>
<path d="M1047.46 1186.07C1087.17 1186.07 1119.36 1152.87 1119.36 1111.92C1119.36 1070.97 1087.17 1037.77 1047.46 1037.77C1007.75 1037.77 975.56 1070.97 975.56 1111.92C975.56 1152.87 1007.75 1186.07 1047.46 1186.07Z" fill="#030047"/>
<path d="M1302.1 1321.92C1348.75 1321.92 1386.56 1290.54 1386.56 1251.83C1386.56 1213.12 1348.75 1181.74 1302.1 1181.74C1255.45 1181.74 1217.64 1213.12 1217.64 1251.83C1217.64 1290.54 1255.45 1321.92 1302.1 1321.92Z" fill="#030047"/>
<path d="M1170.43 1321.92C1217.08 1321.92 1254.89 1290.54 1254.89 1251.83C1254.89 1213.12 1217.08 1181.74 1170.43 1181.74C1123.78 1181.74 1085.97 1213.12 1085.97 1251.83C1085.97 1290.54 1123.78 1321.92 1170.43 1321.92Z" fill="#030047"/>
<path d="M1397.03 1344.54L1491.59 1324.66C1528.91 1316.81 1567.77 1326.03 1597.6 1349.79L1707.73 1423.85L1570.34 1687.72L1430.4 1603.11C1399.64 1584.51 1381.92 1550.22 1384.56 1514.36L1397.03 1344.54Z" fill="#FFCC3D"/>
<path d="M1570.33 1691.1C1569.72 1691.1 1569.12 1690.93 1568.58 1690.61L1428.65 1606C1427.05 1605.03 1426.54 1602.96 1427.51 1601.36C1428.47 1599.76 1430.55 1599.25 1432.15 1600.22L1569.01 1682.97L1703.34 1424.97L1595.72 1352.59C1594.17 1351.55 1593.76 1349.45 1594.8 1347.9C1595.84 1346.35 1597.93 1345.94 1599.49 1346.98L1709.62 1421.04C1711.05 1422 1711.53 1423.88 1710.73 1425.41L1573.34 1689.29C1572.91 1690.12 1572.16 1690.73 1571.25 1690.98C1570.94 1691.06 1570.64 1691.1 1570.33 1691.1Z" fill="#030047"/>
<path d="M1226.65 1361.28L1423.96 1341.89C1472.71 1337.1 1516.85 1370.85 1525 1419.15L1618.86 1975.19H900.47V1439.95C900.47 1386.15 945.89 1343.51 999.58 1346.91L1226.65 1361.28Z" fill="#FFCC3D"/>
<path d="M900.47 1978.58C898.6 1978.58 897.09 1977.07 897.09 1975.2V1439.96C897.09 1438.09 898.6 1436.58 900.47 1436.58C902.34 1436.58 903.85 1438.09 903.85 1439.96V1975.2C903.85 1977.06 902.34 1978.58 900.47 1978.58ZM1586.65 1787.82C1585.03 1787.82 1583.6 1786.65 1583.32 1785L1521.66 1419.72C1521.35 1417.88 1522.59 1416.14 1524.43 1415.83C1526.22 1415.52 1528.01 1416.76 1528.32 1418.6L1589.98 1783.89C1590.29 1785.73 1589.05 1787.47 1587.21 1787.78C1587.03 1787.81 1586.84 1787.82 1586.65 1787.82ZM2014.61 1363.98C2012.99 1363.98 2011.35 1363.81 2009.7 1363.44C1997.55 1360.74 1989.89 1348.71 1992.59 1336.56C1992.99 1334.76 2031.93 1154.67 1978.85 1047.05C1889.76 866.42 1649.27 789.14 1626.98 782.37C1626.63 782.29 1626.28 782.2 1625.93 782.1C1608.57 777.14 1608.17 762.23 1608.27 759.29C1608.61 748.96 1615.94 740.19 1626.04 738.01C1628.3 737.52 1630.61 737.02 1637.68 738.67L1637.7 738.6L1638.32 738.78C1638.55 738.85 1638.79 738.92 1639.02 738.99C1646.78 740.93 1659.72 745.2 1682.74 754.04C1707.81 763.67 1746.61 780.09 1788.99 803.63C1864.41 845.5 1965.58 918.27 2019.26 1027.12C2079.39 1149.03 2038.35 1338.33 2036.57 1346.33C2034.25 1356.83 2024.94 1363.98 2014.61 1363.98ZM1767.92 1546.09C1767.63 1546.09 1767.33 1546.05 1767.04 1545.97C1765.24 1545.48 1764.18 1543.62 1764.66 1541.82L1779.16 1488.4C1779.65 1486.6 1781.51 1485.53 1783.31 1486.02C1785.11 1486.51 1786.17 1488.37 1785.69 1490.17L1771.19 1543.59C1770.77 1545.1 1769.41 1546.09 1767.92 1546.09Z" fill="#030047"/>
<path d="M924.68 1620.25L711.57 1756.54C690.89 1769.76 667.64 1776.16 644.5 1776.16C610.27 1776.16 576.42 1762.09 552.05 1735.19C533.87 1715.11 522.73 1689.65 520.32 1662.66L469.06 1189.72L466.31 1190.95C451.69 1163.03 411.91 1154.56 403.27 1096.17C397.13 1054.82 455.68 927.72 497.32 917.89C525.45 911.28 566.84 899.8 581.63 910.98C611.29 933.22 605.91 981.65 604.72 989.23L618.53 928.6C621.45 915.93 632.68 907.37 645.14 907.37C647.05 907.37 648.95 907.54 650.9 907.96C665.35 911.05 674.71 925.03 672.04 939.57C672.04 939.57 654.2 1015.75 653.4 1041.72C652.89 1057.57 658.44 1105.06 658.44 1105.06L699.71 1498.18L815.54 1423.06L924.68 1620.25Z" fill="white"/>
<path d="M644.51 1779.54C608.38 1779.54 573.78 1764.2 549.56 1737.46C531 1716.96 519.43 1690.5 516.96 1662.96L466.16 1194.32C464.99 1194.27 463.89 1193.61 463.31 1192.51C458.46 1183.25 450.37 1175.97 441.8 1168.26C424.88 1153.03 405.7 1135.77 399.91 1096.66C393.75 1055.2 451.12 925.31 496.54 914.6L504.74 912.64C533.37 905.76 568.99 897.18 583.66 908.29C600.26 920.74 606.4 940.83 608.37 957.95L615.22 927.86C618.47 913.81 630.76 904 645.12 904C647.41 904 649.52 904.22 651.6 904.67C667.93 908.17 678.36 923.77 675.35 940.19C675.14 941.11 657.55 1016.49 656.77 1041.83C656.27 1057.25 661.73 1104.2 661.79 1104.67L702.48 1492.35L813.69 1420.23C814.48 1419.72 815.44 1419.56 816.35 1419.79C817.26 1420.02 818.04 1420.61 818.49 1421.43L927.63 1618.61C928.49 1620.17 928 1622.13 926.49 1623.09L713.4 1759.39C692.78 1772.57 668.95 1779.54 644.51 1779.54ZM469.07 1186.33C469.65 1186.33 470.24 1186.48 470.76 1186.78C471.7 1187.32 472.32 1188.27 472.44 1189.35L523.7 1662.29C526.04 1688.44 537 1713.5 554.58 1732.92C577.52 1758.25 610.3 1772.78 644.52 1772.78C667.68 1772.78 690.24 1766.18 709.77 1753.7L920.2 1619.11L814.35 1427.88L701.56 1501.02C700.57 1501.66 699.32 1501.74 698.26 1501.23C697.2 1500.72 696.48 1499.7 696.35 1498.53L655.09 1105.41C654.87 1103.5 649.52 1057.52 650.03 1041.61C650.84 1015.6 668.03 941.93 668.76 938.8C671.08 926.16 662.94 914 650.2 911.27C648.59 910.92 646.94 910.75 645.14 910.75C633.94 910.75 624.36 918.4 621.83 929.36L608.03 989.98C607.63 991.76 605.9 992.9 604.1 992.55C602.31 992.21 601.12 990.51 601.4 988.71C601.73 986.56 609.26 935.91 579.62 913.68C567.48 904.5 532.15 913 506.34 919.21L498.11 921.18C460.3 930.1 400.42 1053.95 406.62 1095.67C412.05 1132.37 430.27 1148.77 446.34 1163.23C454.55 1170.62 462.34 1177.63 467.75 1186.6C468.17 1186.42 468.62 1186.33 469.07 1186.33Z" fill="#030047"/>
<path d="M1085.08 1353.45L990.52 1333.57C953.2 1325.72 914.34 1334.94 884.51 1358.7L774.38 1432.76L865.23 1704.08L1051.7 1612.03C1082.46 1593.43 1100.18 1559.14 1097.54 1523.28L1085.08 1353.45Z" fill="#FFCC3D"/>
<path d="M865.24 1707.45C864.8 1707.45 864.36 1707.36 863.94 1707.19C863.04 1706.81 862.34 1706.07 862.03 1705.14L771.18 1433.82C770.7 1432.38 771.24 1430.79 772.5 1429.94L882.63 1355.88C884.19 1354.84 886.29 1355.25 887.32 1356.8C888.36 1358.35 887.95 1360.45 886.4 1361.49L778.41 1434.11L867.22 1699.32L1050.22 1608.98C1051.89 1608.16 1053.92 1608.84 1054.75 1610.51C1055.57 1612.18 1054.89 1614.21 1053.21 1615.04L866.74 1707.09C866.27 1707.33 865.76 1707.45 865.24 1707.45Z" fill="#030047"/>
<path d="M1491.36 581.18C1622.95 621.98 1674.96 713.66 1647.61 771.4C1622.17 825.1 1508.14 865.44 1398.01 783.84L1491.36 581.18Z" fill="#605EFD"/>
<path d="M1487.57 702.219C1513.35 646.258 1515.04 592.049 1491.36 581.14C1467.68 570.231 1427.59 606.753 1401.81 662.714C1376.03 718.675 1374.33 772.884 1398.01 783.793C1421.69 794.702 1461.79 758.18 1487.57 702.219Z" fill="#030047"/>
<path d="M1469.79 646.851C1473.27 637.887 1471.4 628.801 1465.62 626.557C1459.84 624.312 1452.33 629.759 1448.85 638.722C1445.37 647.686 1447.23 656.772 1453.02 659.016C1458.8 661.261 1466.31 655.814 1469.79 646.851Z" fill="white"/>
<path d="M1436.24 722.95C1439.72 713.986 1437.86 704.9 1432.07 702.656C1426.29 700.411 1418.78 705.858 1415.3 714.821C1411.82 723.785 1413.69 732.871 1419.47 735.115C1425.25 737.36 1432.76 731.913 1436.24 722.95Z" fill="white"/>
<path d="M465.64 1299.62C456.71 1299.62 448.28 1294.28 444.78 1285.48C443.04 1281.11 403.13 1176.47 483.91 1008.35C525.88 921 608.94 847.99 724.11 797.19C769.49 777.17 811.03 764.53 837.89 757.45C870.34 748.89 890.2 745.33 896.91 746.92C907.2 749.33 914.45 758.59 914.31 769.15C914.29 771.01 913.55 787.42 895.08 791.26C893.68 791.55 892.29 791.71 890.91 791.73C862.29 796.88 611.03 847.84 524.52 1027.87C453.01 1176.68 486.35 1268.07 486.7 1268.98C491.11 1280.55 485.38 1293.58 473.85 1298.08C471.16 1299.12 468.37 1299.62 465.64 1299.62Z" fill="#030047"/>
<path d="M1044.72 604.76C908.61 626.11 843.9 709.3 862.61 770.39C880.01 827.2 987.02 883.61 1107.79 818.79L1044.72 604.76Z" fill="#605EFD"/>
<path d="M1107.77 818.846C1132.78 811.478 1138.94 757.593 1121.53 698.492C1104.12 639.391 1069.72 597.453 1044.71 604.822C1019.7 612.19 1013.54 666.075 1030.96 725.176C1048.37 784.277 1082.76 826.215 1107.77 818.846Z" fill="#030047"/>
<path d="M1131.6 668.03L1075.21 683.97C1067.93 686.03 1060.34 681.84 1058.2 674.58C1056.03 667.21 1060.29 659.48 1067.69 657.38L1123.78 641.52C1131.1 639.36 1138.78 643.55 1140.93 650.87C1143.1 658.19 1138.92 665.87 1131.6 668.03ZM1153.31 747.85L1096.92 763.79C1089.64 765.85 1082.05 761.66 1079.91 754.4C1077.74 747.03 1082 739.3 1089.4 737.2L1145.49 721.34C1152.81 719.18 1160.49 723.37 1162.64 730.69C1164.81 738.02 1160.63 745.7 1153.31 747.85Z" fill="#605EFD"/>
<path d="M1313.31 1376.17L1300.72 1383.68C1261.52 1407.08 1212.63 1407.08 1173.43 1383.68L1160.84 1376.17C1151.96 1370.87 1146.51 1361.28 1146.51 1350.94V1212.58H1327.63V1350.94C1327.63 1361.28 1322.19 1370.87 1313.31 1376.17Z" fill="white"/>
<path d="M1237.07 1404.64C1214.46 1404.64 1191.85 1398.62 1171.69 1386.59L1159.1 1379.08C1149.25 1373.2 1143.13 1362.42 1143.13 1350.94V1212.58C1143.13 1210.71 1144.64 1209.2 1146.51 1209.2H1327.62C1329.49 1209.2 1331 1210.71 1331 1212.58V1350.94C1331 1362.41 1324.88 1373.2 1315.03 1379.08L1302.44 1386.59C1282.29 1398.62 1259.68 1404.64 1237.07 1404.64ZM1149.9 1215.95V1350.93C1149.9 1360.04 1154.76 1368.59 1162.58 1373.26L1175.17 1380.77C1213.36 1403.57 1260.82 1403.56 1299 1380.77L1311.59 1373.26C1319.41 1368.59 1324.27 1360.04 1324.27 1350.93V1215.95H1149.9Z" fill="#030047"/>
<path d="M1254.19 1274.31C1248.57 1275.12 1242.86 1275.54 1237.07 1275.54C1152.36 1275.54 1083.69 1185.88 1083.69 1097.74C1083.69 1009.61 1152.36 956.38 1237.07 956.38C1321.78 956.38 1390.45 1009.61 1390.45 1097.74C1390.45 1152.11 1364.32 1207.06 1324.4 1241.19" fill="white"/>
<path d="M1237.08 1278.91C1147.36 1278.91 1080.32 1183.26 1080.32 1097.73C1080.32 1012.51 1144.78 952.99 1237.08 952.99C1329.38 952.99 1393.84 1012.51 1393.84 1097.73C1393.84 1152.34 1368.08 1208.29 1326.61 1243.75C1325.2 1244.96 1323.06 1244.8 1321.84 1243.38C1320.63 1241.96 1320.8 1239.83 1322.21 1238.62C1362.22 1204.41 1387.07 1150.43 1387.07 1097.74C1387.07 1016.5 1325.39 959.76 1237.07 959.76C1148.75 959.76 1087.07 1016.5 1087.07 1097.74C1087.07 1180.07 1151.22 1272.16 1237.07 1272.16C1242.6 1272.16 1248.2 1271.76 1253.71 1270.97C1255.58 1270.7 1257.27 1271.99 1257.53 1273.83C1257.79 1275.68 1256.51 1277.39 1254.67 1277.66C1248.85 1278.49 1242.92 1278.91 1237.08 1278.91Z" fill="#030047"/>
<path d="M1378.66 1085.38C1378.66 1085.38 1402.28 1048.99 1421.9 1059.18C1441.52 1069.37 1434.22 1142.61 1410.36 1150.04C1386.5 1157.48 1378.23 1154.11 1378.23 1154.11" fill="white"/>
<path d="M1384.61 1158.25C1379.71 1158.25 1377.4 1157.43 1376.95 1157.24C1375.22 1156.54 1374.39 1154.57 1375.09 1152.84C1375.79 1151.11 1377.78 1150.28 1379.49 1150.98C1379.49 1150.98 1387.51 1153.62 1409.34 1146.82C1418.92 1143.83 1427.34 1125.12 1429.36 1102.32C1431.12 1082.37 1427.41 1065.86 1420.33 1062.18C1406.51 1055 1387.6 1077.82 1381.49 1087.22C1380.48 1088.78 1378.38 1089.23 1376.82 1088.21C1375.25 1087.19 1374.81 1085.1 1375.83 1083.54C1376.86 1081.95 1401.38 1044.71 1423.46 1056.18C1435.29 1062.33 1437.75 1084.35 1436.11 1102.91C1434.31 1123.14 1426.76 1148.47 1411.37 1153.27C1398.61 1157.25 1390.03 1158.25 1384.61 1158.25Z" fill="#030047"/>
<path d="M1395.47 1086.61C1400.9 1082.83 1406.34 1079.05 1411.77 1075.26C1412.76 1074.57 1413.82 1073.86 1414.94 1073.98C1416.21 1074.12 1417.3 1075.34 1417.9 1076.81C1418.5 1078.28 1418.69 1079.97 1418.81 1081.63C1419.35 1089.46 1418.37 1097.45 1415.99 1104.67" fill="white"/>
<path d="M1415.99 1108.05C1415.64 1108.05 1415.29 1108 1414.93 1107.88C1413.16 1107.3 1412.19 1105.38 1412.78 1103.61C1415.02 1096.79 1415.94 1089.27 1415.43 1081.86C1415.34 1080.52 1415.19 1079.13 1414.76 1078.09C1414.66 1077.85 1414.56 1077.66 1414.46 1077.52C1414.19 1077.69 1413.87 1077.91 1413.69 1078.03L1397.39 1089.38C1395.86 1090.45 1393.76 1090.07 1392.69 1088.54C1391.62 1087.01 1392 1084.9 1393.53 1083.84L1409.83 1072.49C1410.97 1071.7 1412.88 1070.35 1415.29 1070.62C1417.72 1070.88 1419.86 1072.71 1421.02 1075.52C1421.81 1077.45 1422.04 1079.49 1422.17 1081.39C1422.74 1089.67 1421.71 1098.08 1419.19 1105.72C1418.73 1107.14 1417.41 1108.05 1415.99 1108.05ZM1252.26 1143.82C1250.81 1143.82 1249.47 1142.88 1249.03 1141.42C1248.49 1139.63 1249.5 1137.75 1251.29 1137.21C1256.69 1135.58 1261.08 1131 1262.48 1125.54C1264.17 1118.94 1261.73 1111.65 1259.36 1104.61L1258.66 1102.51C1251.64 1081.26 1248.75 1058.22 1250.31 1035.9C1250.44 1034.04 1252.04 1032.63 1253.91 1032.76C1255.78 1032.89 1257.18 1034.5 1257.05 1036.37C1255.55 1057.83 1258.33 1079.97 1265.08 1100.39L1265.78 1102.46C1268.33 1110.07 1271.23 1118.69 1269.04 1127.23C1267.06 1134.93 1260.86 1141.39 1253.26 1143.69C1252.91 1143.78 1252.58 1143.82 1252.26 1143.82Z" fill="#030047"/>
<path d="M1267.42 956.61C1267.47 964.49 1271.24 972 1276.48 977.9C1281.71 983.79 1288.34 988.25 1295.06 992.38C1311.52 1002.5 1328.98 1011 1347.1 1017.72C1351.61 1019.39 1356.24 1020.97 1361.05 1021.17C1365.86 1021.37 1370.93 1020 1374.27 1016.53C1378.41 1012.23 1379.08 1005.44 1377.3 999.74C1375.52 994.04 1371.67 989.24 1367.61 984.87C1346.95 962.63 1318.4 947.86 1288.31 943.85C1282.52 943.08 1276.54 942.7 1270.91 944.27C1265.28 945.84 1260.01 949.66 1258.01 955.14" fill="#030047"/>
<path d="M1272.02 961.38C1272.02 961.38 1141.74 1063.47 1088.57 1023.45C1035.4 983.43 1212.61 938.3 1214.41 938.66C1216.22 939.03 1272.02 961.38 1272.02 961.38Z" fill="#030047"/>
<path d="M1330.09 1114.32C1295.59 1114.32 1267.52 1086.25 1267.52 1051.75C1267.52 1017.25 1295.59 989.18 1330.09 989.18C1364.59 989.18 1392.66 1017.25 1392.66 1051.75C1392.65 1086.26 1364.59 1114.32 1330.09 1114.32ZM1330.09 998.2C1300.56 998.2 1276.54 1022.23 1276.54 1051.76C1276.54 1081.29 1300.56 1105.32 1330.09 1105.32C1359.62 1105.32 1383.64 1081.3 1383.64 1051.76C1383.64 1022.23 1359.62 998.2 1330.09 998.2Z" fill="#605EFD"/>
<path d="M1180.86 1117.21C1146.36 1117.21 1118.29 1089.14 1118.29 1054.64C1118.29 1020.14 1146.36 992.07 1180.86 992.07C1215.36 992.07 1243.43 1020.14 1243.43 1054.64C1243.43 1089.15 1215.36 1117.21 1180.86 1117.21ZM1180.86 1001.09C1151.33 1001.09 1127.31 1025.11 1127.31 1054.65C1127.31 1084.18 1151.33 1108.21 1180.86 1108.21C1210.39 1108.21 1234.42 1084.19 1234.42 1054.65C1234.42 1025.11 1210.39 1001.09 1180.86 1001.09Z" fill="#605EFD"/>
<path d="M1316.51 1051.75C1324.01 1051.75 1330.09 1045.41 1330.09 1037.6C1330.09 1029.79 1324.01 1023.45 1316.51 1023.45C1309.01 1023.45 1302.93 1029.79 1302.93 1037.6C1302.93 1045.41 1309.01 1051.75 1316.51 1051.75Z" fill="#030047"/>
<path d="M1185.89 1051.75C1193.39 1051.75 1199.47 1045.41 1199.47 1037.6C1199.47 1029.79 1193.39 1023.45 1185.89 1023.45C1178.39 1023.45 1172.31 1029.79 1172.31 1037.6C1172.31 1045.41 1178.39 1051.75 1185.89 1051.75Z" fill="#030047"/>
<path d="M1272.02 1056.26C1271.47 1056.26 1270.91 1056.16 1270.36 1055.94C1261.46 1052.42 1245.13 1054.22 1239.58 1055.21C1237.16 1055.64 1234.79 1054.02 1234.35 1051.57C1233.91 1049.12 1235.54 1046.78 1237.99 1046.34C1238.9 1046.17 1260.56 1042.37 1273.68 1047.56C1275.99 1048.48 1277.13 1051.09 1276.21 1053.41C1275.51 1055.18 1273.82 1056.26 1272.02 1056.26Z" fill="#605EFD"/>
<path d="M1262.59 1189.73C1254.66 1186 1245.42 1185.08 1236.85 1187.15C1228.28 1189.23 1220.44 1194.29 1215 1201.26" fill="white"/>
<path d="M1214.99 1182.68C1214.26 1182.68 1213.53 1182.91 1212.92 1183.4C1211.45 1184.55 1211.19 1186.67 1212.33 1188.14C1218.27 1195.75 1226.69 1201.19 1236.05 1203.46C1245.42 1205.73 1255.35 1204.74 1264.02 1200.66C1265.71 1199.87 1266.43 1197.85 1265.64 1196.16C1264.85 1194.47 1262.84 1193.74 1261.14 1194.54C1253.86 1197.96 1245.51 1198.8 1237.64 1196.89C1229.75 1194.98 1222.66 1190.39 1217.65 1183.98C1217 1183.13 1216 1182.68 1214.99 1182.68Z" fill="#030047"/>
<path d="M699.69 1546.08C697.82 1546.08 696.31 1544.57 696.31 1542.7V1498.19C696.31 1496.32 697.82 1494.81 699.69 1494.81C701.56 1494.81 703.07 1496.32 703.07 1498.19V1542.7C703.07 1544.57 701.56 1546.08 699.69 1546.08Z" fill="#030047"/>
<path d="M2015.41 930.59C2015.41 930.59 1974.24 959.03 1965.98 969.92C1957.73 980.81 1922.52 1030.84 1965.38 1037.69C1965.38 1037.69 1956.03 1072.97 1986.54 1068.36C1986.54 1068.36 1984.2 1090.75 2009.38 1092.13C2009.38 1092.13 2003.86 1107.58 2011.3 1116.76C2018.74 1125.95 2032.1 1122.15 2038.04 1118.39C2046.72 1112.91 2058.88 1088.82 2058.88 1088.82L2114.21 1101.03" fill="white"/>
<path d="M2024.02 1125.84C2018.45 1125.84 2012.81 1124.01 2008.67 1118.89C2002.6 1111.4 2003.78 1100.82 2005.06 1095.08C1998.17 1094.01 1992.76 1091.2 1988.95 1086.72C1984.73 1081.77 1983.51 1075.93 1983.2 1072.11C1975.77 1072.51 1970.02 1070.52 1966.1 1066.14C1959.38 1058.65 1960.38 1046.37 1961.39 1040.35C1951.91 1038.13 1945.68 1033.45 1942.85 1026.4C1935.38 1007.79 1954.66 979.28 1963.29 967.88C1971.77 956.69 2011.79 928.99 2013.49 927.81C2015.04 926.74 2017.14 927.14 2018.19 928.67C2019.25 930.21 2018.87 932.31 2017.33 933.37C2016.92 933.65 1976.51 961.63 1968.67 971.96C1955.9 988.81 1944.06 1011.29 1949.11 1023.88C1951.36 1029.48 1956.85 1032.91 1965.91 1034.35C1966.85 1034.5 1967.69 1035.04 1968.21 1035.84C1968.73 1036.64 1968.89 1037.62 1968.65 1038.55C1967.5 1042.92 1965.71 1055.6 1971.14 1061.63C1974.11 1064.92 1979.12 1066.06 1986.04 1065.02C1987.09 1064.86 1988.13 1065.19 1988.88 1065.92C1989.64 1066.64 1990.02 1067.67 1989.91 1068.72C1989.9 1068.78 1989.21 1076.65 1994.14 1082.39C1997.45 1086.24 2002.64 1088.38 2009.57 1088.76C2010.63 1088.82 2011.61 1089.38 2012.2 1090.26C2012.79 1091.15 2012.93 1092.26 2012.57 1093.26C2012.52 1093.4 2007.8 1107.05 2013.93 1114.63C2020 1122.13 2031.58 1118.48 2036.24 1115.53C2042.7 1111.45 2052.61 1093.76 2055.88 1087.29C2056.58 1085.91 2058.12 1085.18 2059.62 1085.51L2114.94 1097.72C2116.76 1098.12 2117.91 1099.93 2117.51 1101.75C2117.11 1103.57 2115.31 1104.72 2113.48 1104.32L2060.69 1092.67C2057.24 1099.21 2047.68 1116.29 2039.84 1121.24C2035.96 1123.71 2030.03 1125.84 2024.02 1125.84Z" fill="#030047"/>
<path d="M1965.38 1037.69L1991.45 991.26C1993.38 987.82 1996.4 985.13 2000.03 983.59L2049.44 962.7" fill="white"/>
<path d="M1965.37 1041.07C1964.81 1041.07 1964.24 1040.93 1963.72 1040.64C1962.09 1039.73 1961.52 1037.67 1962.43 1036.04L1988.5 989.61C1990.78 985.54 1994.41 982.3 1998.7 980.48L2048.11 959.59C2049.84 958.86 2051.81 959.66 2052.54 961.39C2053.27 963.11 2052.47 965.09 2050.74 965.82L2001.33 986.71C1998.41 987.95 1995.94 990.15 1994.39 992.92L1968.32 1039.35C1967.71 1040.45 1966.56 1041.07 1965.37 1041.07Z" fill="#030047"/>
<path d="M1986.54 1068.36L2019.11 1021.4C2022.05 1017.15 2026.7 1014.4 2031.84 1013.86L2080 1008.75" fill="white"/>
<path d="M1986.53 1071.74C1985.87 1071.74 1985.2 1071.55 1984.61 1071.14C1983.08 1070.08 1982.7 1067.97 1983.76 1066.44L2016.33 1019.48C2019.84 1014.42 2025.36 1011.15 2031.48 1010.5L2079.64 1005.39C2081.54 1005.18 2083.16 1006.54 2083.36 1008.39C2083.55 1010.25 2082.21 1011.91 2080.35 1012.11L2032.19 1017.22C2028.03 1017.66 2024.27 1019.89 2021.88 1023.33L1989.31 1070.29C1988.66 1071.23 1987.61 1071.74 1986.53 1071.74Z" fill="#030047"/>
<path d="M2009.37 1092.13L2031.86 1058.67C2037.7 1049.98 2048.31 1045.83 2058.5 1048.25L2092.31 1056.29" fill="white"/>
<path d="M2009.37 1095.51C2008.72 1095.51 2008.07 1095.32 2007.49 1094.94C2005.94 1093.9 2005.53 1091.8 2006.57 1090.25L2029.06 1056.79C2035.65 1046.99 2047.79 1042.24 2059.28 1044.97L2093.09 1053.01C2094.9 1053.44 2096.03 1055.26 2095.59 1057.08C2095.16 1058.9 2093.33 1060.01 2091.52 1059.59L2057.71 1051.55C2048.94 1049.46 2039.69 1053.09 2034.66 1060.56L2012.17 1094.02C2011.52 1094.99 2010.45 1095.51 2009.37 1095.51Z" fill="#030047"/>
<path d="M523.56 934.61C523.56 934.61 564.73 963.05 572.99 973.94C581.24 984.83 616.45 1034.86 573.59 1041.71C573.59 1041.71 582.94 1076.99 552.43 1072.38C552.43 1072.38 554.77 1094.77 529.59 1096.15C529.59 1096.15 535.11 1111.6 527.67 1120.78C520.23 1129.97 506.87 1126.17 500.93 1122.41C492.25 1116.93 480.09 1092.84 480.09 1092.84L424.76 1105.05" fill="white"/>
<path d="M514.95 1129.85C508.94 1129.85 503.01 1127.72 499.13 1125.26C491.29 1120.31 481.74 1103.23 478.28 1096.69L425.49 1108.34C423.65 1108.73 421.86 1107.59 421.46 1105.77C421.06 1103.95 422.21 1102.14 424.03 1101.74L479.35 1089.53C480.88 1089.2 482.4 1089.93 483.09 1091.31C486.36 1097.78 496.26 1115.46 502.73 1119.55C507.39 1122.49 518.97 1126.15 525.05 1118.65C531.18 1111.07 526.46 1097.41 526.41 1097.28C526.06 1096.28 526.19 1095.16 526.78 1094.28C527.37 1093.39 528.34 1092.84 529.41 1092.78C536.34 1092.4 541.53 1090.25 544.84 1086.41C549.77 1080.68 549.08 1072.81 549.07 1072.73C548.97 1071.69 549.35 1070.66 550.11 1069.95C550.86 1069.23 551.91 1068.9 552.94 1069.06C559.86 1070.1 564.87 1068.97 567.84 1065.67C573.27 1059.63 571.47 1046.96 570.33 1042.59C570.09 1041.67 570.25 1040.68 570.77 1039.88C571.29 1039.08 572.13 1038.54 573.07 1038.39C582.13 1036.94 587.62 1033.52 589.87 1027.92C594.92 1015.34 583.08 992.85 570.31 976C562.47 965.67 522.06 937.69 521.65 937.41C520.11 936.35 519.73 934.24 520.79 932.71C521.85 931.18 523.95 930.78 525.49 931.85C527.19 933.02 567.2 960.73 575.69 971.92C584.33 983.32 603.61 1011.83 596.13 1030.44C593.3 1037.49 587.07 1042.18 577.59 1044.39C578.6 1050.41 579.59 1062.69 572.88 1070.18C568.96 1074.56 563.17 1076.57 555.78 1076.15C555.47 1079.98 554.25 1085.81 550.03 1090.76C546.21 1095.24 540.8 1098.04 533.92 1099.12C535.2 1104.87 536.38 1115.44 530.31 1122.93C526.16 1128.02 520.52 1129.85 514.95 1129.85Z" fill="#030047"/>
<path d="M573.59 1041.7L547.52 995.27C545.59 991.83 542.57 989.14 538.94 987.6L489.53 966.71" fill="white"/>
<path d="M573.59 1045.08C572.41 1045.08 571.26 1044.46 570.64 1043.35L544.58 996.92C543.02 994.15 540.56 991.94 537.64 990.71L488.24 969.82C486.52 969.09 485.71 967.11 486.44 965.39C487.17 963.67 489.15 962.87 490.87 963.59L540.27 984.48C544.56 986.29 548.19 989.54 550.47 993.6L576.54 1040.04C577.45 1041.67 576.87 1043.73 575.25 1044.64C574.72 1044.94 574.15 1045.08 573.59 1045.08Z" fill="#030047"/>
<path d="M552.43 1072.38L519.86 1025.42C516.92 1021.17 512.27 1018.42 507.13 1017.88L458.97 1012.77" fill="white"/>
<path d="M552.43 1075.76C551.36 1075.76 550.3 1075.25 549.65 1074.31L517.08 1027.35C514.69 1023.91 510.93 1021.68 506.77 1021.24L458.61 1016.13C456.75 1015.93 455.41 1014.27 455.6 1012.41C455.8 1010.56 457.42 1009.21 459.32 1009.41L507.48 1014.52C513.6 1015.17 519.12 1018.44 522.63 1023.5L555.2 1070.46C556.26 1071.99 555.88 1074.1 554.35 1075.16C553.77 1075.56 553.1 1075.76 552.43 1075.76Z" fill="#030047"/>
<path d="M529.59 1096.15L507.1 1062.69C501.26 1054 490.65 1049.85 480.46 1052.27L446.65 1060.31" fill="white"/>
<path d="M529.6 1099.53C528.51 1099.53 527.44 1099.01 526.79 1098.04L504.3 1064.58C499.27 1057.1 490 1053.48 481.25 1055.57L447.44 1063.61C445.61 1064.04 443.8 1062.92 443.37 1061.1C442.94 1059.28 444.06 1057.46 445.87 1057.03L479.68 1048.99C491.2 1046.25 503.32 1051.01 509.9 1060.81L532.39 1094.27C533.43 1095.82 533.02 1097.92 531.47 1098.96C530.9 1099.34 530.25 1099.53 529.6 1099.53Z" fill="#030047"/>
<path d="M1111.82 1085.38C1111.82 1085.38 1074.98 1040.67 1055.37 1050.85C1035.76 1061.03 1045.89 1152.41 1069.75 1159.85C1093.61 1167.29 1112.26 1154.11 1112.26 1154.11" fill="white"/>
<path d="M1084.67 1165.53C1079.75 1165.53 1074.39 1164.84 1068.74 1163.08C1053.86 1158.44 1044.72 1128.5 1042.28 1100.88C1041.35 1090.33 1039.42 1055.33 1053.81 1047.86C1075.21 1036.74 1110.48 1078.44 1114.43 1083.24C1115.61 1084.68 1115.41 1086.81 1113.97 1088C1112.53 1089.19 1110.4 1088.98 1109.21 1087.54C1099.45 1075.69 1071 1046.55 1056.92 1053.86C1050.15 1057.38 1046.89 1076.47 1049 1100.29C1051.57 1129.35 1060.93 1153.57 1070.75 1156.63C1092.63 1163.46 1110.13 1151.47 1110.31 1151.35C1111.83 1150.29 1113.94 1150.64 1115.02 1152.17C1116.09 1153.69 1115.73 1155.8 1114.21 1156.87C1113.57 1157.32 1101.7 1165.53 1084.67 1165.53Z" fill="#030047"/>
<path d="M1086.38 1092.22C1080.95 1088.44 1075.51 1084.66 1070.08 1080.87C1069.09 1080.18 1068.03 1079.47 1066.91 1079.59C1065.64 1079.73 1064.55 1080.95 1063.95 1082.42C1063.35 1083.89 1063.16 1085.58 1063.04 1087.24C1062.5 1095.07 1063.48 1103.06 1065.86 1110.28" fill="white"/>
<path d="M1065.85 1113.66C1064.43 1113.66 1063.11 1112.76 1062.64 1111.34C1060.12 1103.7 1059.09 1095.29 1059.66 1087.01C1059.79 1085.1 1060.02 1083.07 1060.81 1081.13C1061.97 1078.32 1064.11 1076.49 1066.54 1076.23C1068.99 1075.97 1070.86 1077.3 1072 1078.1L1088.3 1089.45C1089.83 1090.52 1090.21 1092.62 1089.14 1094.15C1088.08 1095.68 1085.97 1096.06 1084.44 1094.99L1068.14 1083.64C1067.97 1083.52 1067.64 1083.29 1067.37 1083.13C1067.27 1083.27 1067.17 1083.45 1067.07 1083.7C1066.64 1084.74 1066.5 1086.13 1066.41 1087.47C1065.9 1094.88 1066.82 1102.4 1069.06 1109.22C1069.65 1110.99 1068.68 1112.9 1066.91 1113.49C1066.56 1113.61 1066.2 1113.66 1065.85 1113.66Z" fill="#030047"/>
<path d="M2249.48 1792.2L2250 1745.3L2225.56 1745.03C2222.78 1731.06 2217.41 1718 2210.02 1706.36L2227.5 1689.24L2194.7 1655.71L2177.22 1672.83C2165.74 1665.15 2152.81 1659.52 2138.9 1656.43L2139.17 1631.99L2092.25 1631.47L2091.98 1655.91C2078.01 1658.69 2064.95 1664.03 2053.31 1671.45L2036.22 1653.95L2002.69 1686.74L2019.78 1704.24C2012.13 1715.72 2006.47 1728.65 2003.38 1742.56L1978.94 1742.29L1978.42 1789.19L2002.86 1789.46C2005.64 1803.46 2011.01 1816.51 2018.4 1828.13L2000.92 1845.25L2033.72 1878.78L2051.2 1861.66C2062.68 1869.33 2075.61 1874.97 2089.52 1878.06L2089.25 1902.52L2136.17 1903.04L2136.44 1878.58C2150.41 1875.8 2163.47 1870.46 2175.11 1863.04L2192.2 1880.54L2225.73 1847.74L2208.64 1830.24C2216.29 1818.78 2221.95 1805.85 2225.04 1791.92L2249.48 1792.2ZM2118.19 1823.89C2083.19 1826.27 2054.54 1796.99 2057.68 1762.03C2060.15 1734.53 2082.7 1712.48 2110.24 1710.63C2145.26 1708.28 2173.89 1737.57 2170.74 1772.5C2168.25 1799.98 2145.72 1822.02 2118.19 1823.89Z" fill="#605EFD"/>
<path d="M455.53 1534.91L455.93 1499.35L437.4 1499.14C435.3 1488.55 431.22 1478.65 425.62 1469.82L438.87 1456.84L414 1431.42L400.75 1444.4C392.05 1438.58 382.24 1434.3 371.7 1431.96L371.91 1413.43L336.33 1413.03L336.12 1431.56C325.53 1433.66 315.63 1437.72 306.8 1443.35L293.84 1430.08L268.41 1454.95L281.37 1468.22C275.57 1476.92 271.28 1486.73 268.94 1497.27L250.41 1497.06L250.01 1532.62L268.54 1532.83C270.64 1543.44 274.72 1553.34 280.32 1562.15L267.07 1575.13L291.94 1600.56L305.19 1587.58C313.89 1593.4 323.7 1597.67 334.24 1600.01L334.03 1618.56L369.61 1618.96L369.82 1600.41C380.41 1598.31 390.31 1594.25 399.14 1588.63L412.1 1601.9L437.53 1577.03L424.57 1563.76C430.37 1555.07 434.66 1545.27 437 1534.71L455.53 1534.91ZM355.98 1558.94C329.44 1560.74 307.72 1538.54 310.1 1512.03C311.97 1491.18 329.07 1474.46 349.96 1473.05C376.51 1471.26 398.22 1493.48 395.83 1519.96C393.94 1540.81 376.86 1557.52 355.98 1558.94Z" fill="#605EFD"/>
<path d="M2138.73 1978.58H478.41C476.54 1978.58 475.03 1977.07 475.03 1975.2C475.03 1973.33 476.54 1971.82 478.41 1971.82H2138.73C2140.6 1971.82 2142.11 1973.33 2142.11 1975.2C2142.11 1977.07 2140.6 1978.58 2138.73 1978.58Z" fill="#030047"/>
<g opacity="0.4">
<path d="M1621.17 1593.52C1620.2 1593.52 1619.23 1593.1 1618.56 1592.29C1611.32 1583.5 1607.33 1572.39 1607.33 1560.99C1607.33 1533.83 1629.4 1511.74 1656.54 1511.74C1657.85 1511.74 1659.15 1511.79 1660.4 1511.88C1662.26 1512.02 1663.66 1513.64 1663.52 1515.51C1663.38 1517.37 1661.75 1518.74 1659.89 1518.62C1658.8 1518.54 1657.67 1518.5 1656.54 1518.5C1633.13 1518.5 1614.09 1537.56 1614.09 1560.99C1614.09 1570.97 1617.44 1580.31 1623.78 1588C1624.96 1589.44 1624.76 1591.57 1623.32 1592.76C1622.69 1593.27 1621.93 1593.52 1621.17 1593.52Z" fill="white"/>
</g>
<g opacity="0.4">
<path d="M913.07 1937.62C908.41 1937.62 903.87 1937 899.57 1935.78C897.77 1935.27 896.73 1933.4 897.24 1931.61C897.75 1929.82 899.62 1928.77 901.42 1929.28C905.12 1930.33 909.04 1930.86 913.07 1930.86C937.07 1930.86 956.6 1911.33 956.6 1887.33C956.6 1863.33 937.07 1843.8 913.07 1843.8C909.04 1843.8 905.12 1844.33 901.42 1845.38C899.63 1845.9 897.75 1844.85 897.24 1843.05C896.73 1841.25 897.77 1839.39 899.57 1838.87C903.87 1837.65 908.41 1837.03 913.07 1837.03C940.8 1837.03 963.36 1859.59 963.36 1887.32C963.36 1915.06 940.8 1937.62 913.07 1937.62Z" fill="white"/>
</g>
<path opacity="0.4" d="M1404.54 1707.45C1375.87 1707.45 1352.55 1684.13 1352.55 1655.46C1352.55 1626.79 1375.87 1603.47 1404.54 1603.47C1433.21 1603.47 1456.53 1626.79 1456.53 1655.46C1456.53 1684.13 1433.21 1707.45 1404.54 1707.45ZM1404.54 1610.23C1379.6 1610.23 1359.31 1630.52 1359.31 1655.46C1359.31 1680.4 1379.6 1700.69 1404.54 1700.69C1429.48 1700.69 1449.77 1680.4 1449.77 1655.46C1449.77 1630.52 1429.48 1610.23 1404.54 1610.23ZM1099.11 1855.75C1071.11 1855.75 1048.33 1832.97 1048.33 1804.97C1048.33 1776.97 1071.11 1754.19 1099.11 1754.19C1127.11 1754.19 1149.89 1776.97 1149.89 1804.97C1149.9 1832.97 1127.11 1855.75 1099.11 1855.75ZM1099.11 1760.95C1074.84 1760.95 1055.09 1780.7 1055.09 1804.97C1055.09 1829.24 1074.84 1848.99 1099.11 1848.99C1123.38 1848.99 1143.13 1829.24 1143.13 1804.97C1143.14 1780.7 1123.39 1760.95 1099.11 1760.95ZM1324.39 1890.49C1305.13 1890.49 1289.47 1874.82 1289.47 1855.57C1289.47 1836.31 1305.14 1820.65 1324.39 1820.65C1343.64 1820.65 1359.31 1836.32 1359.31 1855.57C1359.31 1874.82 1343.65 1890.49 1324.39 1890.49ZM1324.39 1827.4C1308.86 1827.4 1296.23 1840.03 1296.23 1855.56C1296.23 1871.09 1308.86 1883.72 1324.39 1883.72C1339.92 1883.72 1352.55 1871.09 1352.55 1855.56C1352.55 1840.03 1339.92 1827.4 1324.39 1827.4ZM1243.51 1643.1C1225.93 1643.1 1211.62 1628.79 1211.62 1611.21C1211.62 1593.63 1225.93 1579.32 1243.51 1579.32C1261.1 1579.32 1275.41 1593.63 1275.41 1611.21C1275.41 1628.79 1261.1 1643.1 1243.51 1643.1ZM1243.51 1586.07C1229.65 1586.07 1218.38 1597.34 1218.38 1611.2C1218.38 1625.06 1229.65 1636.33 1243.51 1636.33C1257.37 1636.33 1268.65 1625.05 1268.65 1611.2C1268.65 1597.35 1257.37 1586.07 1243.51 1586.07ZM965.68 1535.48C947.51 1535.48 932.73 1520.7 932.73 1502.53C932.73 1484.36 947.51 1469.58 965.68 1469.58C983.85 1469.58 998.63 1484.36 998.63 1502.53C998.63 1520.7 983.85 1535.48 965.68 1535.48ZM965.68 1476.33C951.24 1476.33 939.49 1488.08 939.49 1502.52C939.49 1516.96 951.24 1528.71 965.68 1528.71C980.12 1528.71 991.87 1516.96 991.87 1502.52C991.87 1488.08 980.12 1476.33 965.68 1476.33ZM1330.43 1518.5C1307.84 1518.5 1289.47 1500.12 1289.47 1477.54C1289.47 1454.95 1307.85 1436.58 1330.43 1436.58C1353.01 1436.58 1371.39 1454.96 1371.39 1477.54C1371.39 1500.13 1353.02 1518.5 1330.43 1518.5ZM1330.43 1443.33C1311.57 1443.33 1296.22 1458.67 1296.22 1477.53C1296.22 1496.39 1311.56 1511.73 1330.43 1511.73C1349.29 1511.73 1364.63 1496.39 1364.63 1477.53C1364.63 1458.68 1349.29 1443.33 1330.43 1443.33ZM1597.23 1443.33C1587.94 1443.33 1580.39 1435.78 1580.39 1426.49C1580.39 1417.2 1587.95 1409.65 1597.23 1409.65C1606.51 1409.65 1614.07 1417.2 1614.07 1426.49C1614.07 1435.78 1606.52 1443.33 1597.23 1443.33ZM1597.23 1416.41C1591.67 1416.41 1587.15 1420.93 1587.15 1426.49C1587.15 1432.05 1591.67 1436.57 1597.23 1436.57C1602.79 1436.57 1607.31 1432.05 1607.31 1426.49C1607.31 1420.93 1602.79 1416.41 1597.23 1416.41ZM1520.73 1872.05C1506.56 1872.05 1495.03 1860.52 1495.03 1846.35C1495.03 1832.18 1506.56 1820.65 1520.73 1820.65C1534.9 1820.65 1546.43 1832.18 1546.43 1846.35C1546.43 1860.52 1534.9 1872.05 1520.73 1872.05ZM1520.73 1827.4C1510.28 1827.4 1501.79 1835.9 1501.79 1846.34C1501.79 1856.79 1510.29 1865.29 1520.73 1865.29C1531.18 1865.29 1539.67 1856.79 1539.67 1846.34C1539.67 1835.9 1531.18 1827.4 1520.73 1827.4ZM1274.13 1766.18C1261.94 1766.18 1252.03 1756.27 1252.03 1744.08C1252.03 1731.89 1261.94 1721.98 1274.13 1721.98C1286.32 1721.98 1296.23 1731.89 1296.23 1744.08C1296.23 1756.26 1286.31 1766.18 1274.13 1766.18ZM1274.13 1728.74C1265.67 1728.74 1258.79 1735.62 1258.79 1744.08C1258.79 1752.54 1265.67 1759.42 1274.13 1759.42C1282.59 1759.42 1289.47 1752.54 1289.47 1744.08C1289.47 1735.62 1282.59 1728.74 1274.13 1728.74ZM1112.67 1535.48C1101.46 1535.48 1092.34 1526.36 1092.34 1515.15C1092.34 1503.94 1101.46 1494.82 1112.67 1494.82C1123.88 1494.82 1133 1503.94 1133 1515.15C1133 1526.36 1123.88 1535.48 1112.67 1535.48ZM1112.67 1501.58C1105.18 1501.58 1099.1 1507.67 1099.1 1515.15C1099.1 1522.63 1105.19 1528.72 1112.67 1528.72C1120.16 1528.72 1126.25 1522.63 1126.25 1515.15C1126.24 1507.66 1120.15 1501.58 1112.67 1501.58ZM902.92 1606.78C891.7 1606.78 882.57 1597.65 882.57 1586.43C882.57 1575.21 891.7 1566.08 902.92 1566.08C914.14 1566.08 923.27 1575.21 923.27 1586.43C923.27 1597.65 914.14 1606.78 902.92 1606.78ZM902.92 1572.84C895.43 1572.84 889.33 1578.94 889.33 1586.43C889.33 1593.92 895.42 1600.02 902.92 1600.02C910.42 1600.02 916.51 1593.92 916.51 1586.43C916.51 1578.94 910.41 1572.84 902.92 1572.84ZM853.16 1464.69C842.1 1464.69 833.1 1455.69 833.1 1444.63C833.1 1433.57 842.1 1424.57 853.16 1424.57C864.22 1424.57 873.22 1433.57 873.22 1444.63C873.22 1455.69 864.23 1464.69 853.16 1464.69ZM853.16 1431.33C845.82 1431.33 839.86 1437.3 839.86 1444.63C839.86 1451.96 845.83 1457.93 853.16 1457.93C860.5 1457.93 866.46 1451.96 866.46 1444.63C866.46 1437.3 860.5 1431.33 853.16 1431.33Z" fill="white"/>
</svg>
