<svg width="40" height="40" viewBox="0 0 40 40" fill="none" xmlns="http://www.w3.org/2000/svg">
<rect width="40" height="40" rx="20" fill="#0B66C2"/>
<path fill-rule="evenodd" clip-rule="evenodd" d="M20.3399 17.864V18.9953C20.5768 18.6345 20.9034 18.3413 21.2876 18.1445C21.6719 17.9477 22.1006 17.854 22.5319 17.8727C24.8352 17.8727 25.3332 19.3127 25.3332 21.186V25H23.1999V21.6187C23.1999 20.812 23.0372 19.7747 21.7812 19.7747C20.5632 19.7747 20.3552 20.6527 20.3552 21.5587V25H18.2286V17.864H20.3399ZM16.7999 16.0707C16.7997 16.282 16.737 16.4886 16.6198 16.6644C16.5027 16.8403 16.3362 16.9777 16.1412 17.0593C15.9464 17.1403 15.7319 17.1615 15.5249 17.1202C15.318 17.0789 15.1281 16.9769 14.9792 16.8273C14.8302 16.6776 14.7287 16.4872 14.6875 16.28C14.6464 16.0728 14.6674 15.858 14.748 15.6627C14.8286 15.4674 14.9651 15.3003 15.1404 15.1824C15.3157 15.0644 15.522 15.001 15.7332 15C15.8737 15 16.0127 15.0277 16.1424 15.0816C16.272 15.1354 16.3898 15.2144 16.4889 15.3138C16.588 15.4133 16.6665 15.5314 16.7199 15.6612C16.7732 15.7911 16.8004 15.9303 16.7999 16.0707Z" fill="white"/>
<path d="M16.8003 17.873H14.667V25.0004H16.8003V17.873Z" fill="white"/>
</svg>
