<svg xmlns="http://www.w3.org/2000/svg" xml:space="preserve" id="password-security" x="0" y="0" enable-background="new 0 0 2500 2500" version="1.1" viewBox="0 0 2500 2500">
  <path fill="#030047" d="M764.34,999.13c-1.1,0-2.19-0.52-2.86-1.5c-4.29-6.24-6.99-13.51-7.78-21.05c-0.18-1.73-0.29-3.76,0.33-5.79
				c0.83-2.72,2.8-4.76,5.26-5.46c2.28-0.64,4.39,0,5.79,0.42l20.57,6.21c1.83,0.55,2.87,2.49,2.32,4.32
				c-0.55,1.83-2.49,2.87-4.32,2.32l-20.57-6.21c-0.47-0.14-1.58-0.48-1.89-0.38c-0.1,0.04-0.38,0.34-0.52,0.81
				c-0.26,0.83-0.19,1.95-0.07,3.03c0.68,6.39,2.96,12.56,6.6,17.85c1.09,1.58,0.69,3.74-0.89,4.83
				C765.7,998.93,765.02,999.13,764.34,999.13z"></path>
  <path fill="#fff" d="M1770.38,1511.78c-78.47-30.95-339.7-152.42-406.65-415.92c-52.94-208.39,20.67-406.75,54.77-482.36
					l22.6-50.1l53.94,10.51c25.77,5.02,51.54,7.57,76.61,7.57c90.12-0.01,156.03-32.76,187.3-52.28l36.9-23.04l36.82,23.17
					c30.95,19.47,96.44,52.15,187.33,52.15c25.09,0,50.87-2.55,76.63-7.57l53.95-10.51l22.6,50.1
					c34.11,75.61,107.72,273.98,54.77,482.36c-66.94,263.5-328.17,384.97-406.64,415.92l-25.47,10.05L1770.38,1511.78z"></path>
  <path fill="#030047" d="M1795.85,1525.3c-0.43,0-0.87-0.08-1.27-0.24l-25.47-10.05c-78.86-31.11-341.39-153.19-408.74-418.3
					c-53.21-209.45,20.72-408.7,54.97-484.65l22.6-50.1c0.66-1.47,2.25-2.29,3.83-1.98l53.94,10.51c25.55,4.98,51.1,7.51,75.94,7.51
					c89.25-0.01,154.51-32.43,185.46-51.75l36.9-23.04c1.13-0.7,2.56-0.7,3.69,0.01l36.82,23.17
					c30.63,19.28,95.46,51.61,185.48,51.61c24.87,0,50.43-2.53,75.97-7.51l53.95-10.51c1.58-0.31,3.17,0.51,3.83,1.98l22.6,50.1
					c34.26,75.94,108.19,275.19,54.97,484.65c-67.35,265.1-329.88,387.19-408.73,418.3l-25.47,10.05
					C1796.71,1525.22,1796.28,1525.3,1795.85,1525.3z M1443.14,567.32l-21.47,47.6c-33.95,75.28-107.25,272.75-54.57,480.08
					c66.54,261.91,326.47,382.75,404.56,413.55l0,0l24.19,9.55l24.19-9.55c78.08-30.8,338.01-151.64,404.55-413.55
					c52.67-207.33-20.62-404.81-54.57-480.08l-21.47-47.6l-51.25,9.99c-25.98,5.06-51.99,7.63-77.3,7.63
					c-91.77,0-157.91-33.01-189.18-52.68l-34.98-22.01l-35.06,21.89c-31.58,19.72-98.15,52.8-189.13,52.8
					c-25.29,0-51.29-2.57-77.27-7.63L1443.14,567.32z"></path>
  <path fill="#fff" d="M1795.85,1447.22c-62.14-24.51-305.33-134.19-364.85-368.45c-47.46-186.82,19.18-366.69,50.77-436.74
					c30.17,5.88,60.27,8.85,89.88,8.85c0.01,0,0.02,0,0.03,0c105.86-0.01,183.88-37.75,224.02-62.81
					c39.96,25.14,117.62,62.81,224.3,62.81c29.63,0,59.74-2.97,89.91-8.85c31.6,70.05,98.23,249.92,50.77,436.74
					C2101.18,1313.03,1857.99,1422.7,1795.85,1447.22z"></path>
  <path fill="#030047" d="M1795.85,1450.69c-0.43,0-0.87-0.08-1.27-0.24c-71.1-28.05-307.7-137.68-366.94-370.82
					c-47.82-188.23,19.72-369.72,50.97-439.02c0.66-1.47,2.24-2.28,3.83-1.98c29.92,5.83,59.93,8.79,89.22,8.79
					c106.57-0.01,184.96-39.03,222.22-62.28c1.12-0.7,2.56-0.7,3.68,0.01c36.96,23.26,115.01,62.28,222.45,62.28
					c29.31,0,59.34-2.96,89.25-8.79c1.58-0.3,3.16,0.51,3.83,1.98c31.26,69.3,98.79,250.79,50.97,439.02
					c-59.23,233.14-295.83,342.78-366.93,370.82C1796.71,1450.61,1796.28,1450.69,1795.85,1450.69z M1483.82,645.96
					c-31.41,70.41-96.17,248.07-49.45,431.96c58.07,228.57,289.64,337.03,361.48,365.57c71.84-28.54,303.41-137,361.48-365.57
					c46.72-183.89-18.04-361.55-49.45-431.96c-29.45,5.57-59,8.39-87.87,8.39c-107.43,0-186-38.42-224.3-62.19
					c-38.59,23.76-117.47,62.18-224.01,62.19C1542.81,654.35,1513.27,651.52,1483.82,645.96z"></path>
  <path fill="#605efd" d="M1086.73,1146.42l36.39-0.11c46.06-0.13,89.08,22.99,114.39,61.47l207.11,309.52
						c33.36,49.85,17.08,117.56-35.29,146.8h0c-47.71,26.64-107.93,11.27-137.02-34.99l-182.1-289.47L1086.73,1146.42z"></path>
  <path fill="#605efd" d="M1128.96,1720.68l20.25-510.52c1.4-35.27-27.19-64.44-62.48-63.74c0,0-138.11-1.92-183.71,3.64
							c-47.88,5.83-178.72,29.04-178.72,29.04c-27.8,6.3-47.59,30.92-47.77,59.42l-12.41,482.16H1128.96z"></path>
  <path fill="#030047" d="M1128.96,1724.15c-0.03,0-0.05,0-0.08,0c-1.92-0.05-3.43-1.63-3.39-3.55l10.12-442.41
							c0.05-1.92,1.68-3.32,3.55-3.39c1.92,0.05,3.43,1.63,3.39,3.55l-10.12,442.41
							C1132.39,1722.65,1130.84,1724.15,1128.96,1724.15z"></path>
  <path fill="#030047" d="M2025.17,1720.6H313.19c-1.92,0-3.47-1.55-3.47-3.47s1.55-3.47,3.47-3.47h1711.99
							c1.92,0,3.47,1.55,3.47,3.47S2027.09,1720.6,2025.17,1720.6z"></path>
  <circle cx="631.48" cy="1791.28" r="206.04" fill="#ffcc3d"></circle>
  <circle cx="531.39" cy="1839.12" r="40.57" fill="#fff"></circle>
  <path fill="#ffcc3d" d="M1699.06,1368.12c0,11.38-6.88,22.19-18.14,26.56l-874.03,341.45c-14.66,5.72-31.19-1.54-36.92-16.14
							c-1.35-3.41-1.93-6.88-1.93-10.36c0-11.38,6.88-22.19,18.14-26.56l874.03-341.45c14.66-5.72,31.19,1.54,36.92,16.21
							C1698.48,1361.24,1699.06,1364.71,1699.06,1368.12z"></path>
  <rect width="185.93" height="72.25" x="1502.57" y="1407.1" fill="#ffcc3d" transform="rotate(-24.591 1595.485 1443.055)"></rect>
  <rect width="54.61" height="52.39" x="1534.46" y="1501.03" fill="#ffcc3d" transform="rotate(-24.591 1561.722 1527.043)"></rect>
  <rect width="86.38" height="52.39" x="1623.54" y="1452.99" fill="#ffcc3d" transform="rotate(-24.591 1666.676 1479.001)"></rect>
  <g>
    <path fill="#fff" d="M677.04,1779.05l41.39,27.25c2.96,1.57,6.13,2.34,9.4,2.43c5.7-0.01,11.5-2.63,15.39-7.36
								c7.7-9.3,5.35-23.19-4.9-29.65l-106.59-101.28l-136.79,102.23"></path>
    <path fill="#030047" d="M727.84,1812.19c-4.02-0.1-7.7-1.06-11.04-2.83l-41.67-27.41c-1.6-1.05-2.04-3.21-0.99-4.81
								c1.06-1.6,3.21-2.04,4.81-0.99l41.39,27.24c2.1,1.1,4.75,1.78,7.59,1.86c4.73-0.01,9.49-2.29,12.62-6.1
								c3.05-3.68,4.31-8.3,3.56-13.01c-0.76-4.73-3.54-8.93-7.63-11.5c-0.19-0.12-0.38-0.26-0.54-0.42l-104.47-99.26
								l-134.44,100.48c-1.53,1.15-3.71,0.83-4.86-0.7c-1.15-1.54-0.83-3.71,0.7-4.86l136.79-102.23c1.35-1.01,3.24-0.91,4.47,0.26
								l106.35,101.05c5.61,3.66,9.43,9.5,10.48,16.09c1.06,6.62-0.79,13.37-5.06,18.52
								C741.47,1808.95,734.72,1812.18,727.84,1812.19z"></path>
    <g>
      <path fill="#fff" d="M494.95,1772.65L589,1929.8c3.62,4.54,9.58,6.48,14.97,6.46c3.68,0.04,7.28-0.93,10.43-3.19
							c8.05-5.47,10.78-16.6,5.57-24.86l-16.62-28.69l31.2,53.23c3.52,6.08,9.96,10.23,17.08,10.32c0.07,0.02,0.12-0.01,0.12-0.01
							c3.68,0.04,7.32-0.95,10.43-3.19c8.05-5.47,10.78-16.6,5.59-24.82l-31.6-54.56l47.47,81.32c3.62,4.54,9.6,6.41,15.01,6.43
							c3.63,0.07,7.25-0.97,10.38-3.16c8.05-5.47,10.27-16.31,5.1-24.59l-44.86-79.18l33.16,57.25c3.62,4.54,9.63,6.45,15.01,6.44
							c3.63,0.07,7.27-0.93,10.38-3.16c8.05-5.47,10.32-16.33,5.13-24.55l-55.92-98.26"></path>
      <path fill="#030047" d="M698.98,1951.74c-0.13,0-0.26,0-0.39,0c-7.32-0.04-13.77-2.86-17.66-7.74c-0.1-0.13-0.2-0.27-0.28-0.42
							l-7.63-13.07c-1.4,4.81-4.44,9.22-8.89,12.25c-3.46,2.49-7.7,3.83-12.3,3.79c-0.08,0.01-0.16,0.01-0.24,0v0
							c-8.11-0.1-15.79-4.72-20.04-12.05l-6.32-10.78c-1.4,4.81-4.43,9.22-8.88,12.24c-3.5,2.51-7.77,3.79-12.42,3.79
							c-0.03,0-0.06,0-0.09,0c-7.09,0-13.67-2.9-17.55-7.77c-0.1-0.12-0.19-0.25-0.27-0.38l-94.05-157.15
							c-0.99-1.64-0.45-3.78,1.2-4.76c1.64-0.98,3.78-0.45,4.76,1.2l93.92,156.93c2.61,3.15,6.99,5.19,12.11,4.99
							c3.19-0.01,6.02-0.82,8.42-2.54c6.74-4.58,8.8-13.62,4.65-20.19l-16.69-28.81c-0.96-1.66-0.4-3.78,1.26-4.74
							c1.64-0.97,3.77-0.41,4.74,1.24l31.2,53.23c3.02,5.21,8.38,8.49,14.01,8.61c0.07,0,0.14,0,0.23,0
							c3.17-0.06,6.02-0.84,8.37-2.54c6.75-4.59,8.82-13.6,4.68-20.15l-31.67-54.67c-0.96-1.66-0.4-3.78,1.26-4.74
							c1.65-0.96,3.78-0.4,4.74,1.25l47.34,81.09c2.57,3.08,7.1,4.92,12.17,4.95c3.03,0.08,5.92-0.82,8.38-2.54
							c6.54-4.44,8.35-13.18,4.14-19.91l-44.94-79.3c-0.94-1.66-0.36-3.77,1.29-4.72c1.66-0.95,3.77-0.38,4.73,1.27l33.02,57.01
							c2.59,3.1,7.07,4.94,12.06,4.94c0.13,0,0.24,0,0.36,0c3.03,0,5.8-0.87,8.09-2.51c6.62-4.5,8.44-13.2,4.22-19.87l-56-98.4
							c-0.95-1.67-0.37-3.78,1.3-4.73c1.66-0.95,3.78-0.37,4.73,1.3l55.92,98.26c6.15,9.72,3.46,22.58-6.19,29.14
							c-3.51,2.53-7.83,3.85-12.39,3.76c-2.28-0.05-4.45-0.27-6.53-0.81l6.3,11.13c6.11,9.78,3.43,22.65-6.17,29.18
							C707.47,1950.43,703.31,1951.74,698.98,1951.74z"></path>
    </g>
  </g>
  <g>
    <path fill="#605efd" d="M823.63,1162.11l-16.1,97.21c-3.61,40.44-22.26,78.01-52.19,105.36l-201.29,161.68l111.18,165.03
						l-166.81,129.3l-130.54-197.33c-24.08-36.99-33.02-81.82-24.97-125.21v0c7.21-38.88,27.6-74.09,57.74-99.7l191.81-163
						c28.13-27.9,64.18-46.55,103.23-53.4L823.63,1162.11z"></path>
  </g>
  <g>
    <path fill="#030047" d="M554.05,1529.83c-1.02,0-2.02-0.44-2.71-1.3c-1.2-1.49-0.96-3.68,0.53-4.88l201.29-161.69
						c1.5-1.2,3.68-0.96,4.88,0.53c1.2,1.49,0.96,3.68-0.53,4.88l-201.29,161.69C555.58,1529.58,554.82,1529.83,554.05,1529.83z"></path>
  </g>
  <g>
    <path fill="#030047" d="M498.43,1824.15c-0.19,0-0.38-0.02-0.56-0.05c-0.95-0.16-1.8-0.7-2.33-1.51l-130.55-197.33
						c-1.06-1.6-0.62-3.75,0.98-4.81c1.59-1.06,3.75-0.62,4.81,0.98l128.48,194.21l161.29-125.02l-129.41-192.75
						c-1.07-1.59-0.64-3.75,0.95-4.81c1.59-1.07,3.75-0.65,4.81,0.95l131.22,195.44c1.02,1.51,0.69,3.56-0.75,4.68l-166.8,129.3
						C499.94,1823.9,499.19,1824.15,498.43,1824.15z"></path>
  </g>
  <g>
    <path fill="#fff" d="M1364.49,1577.81c-24.67,15.26-57.92,35.97-97.69,24.03c-30.48-9.16-65.69-93.56-8.16-97.29
							c0,0,0.8-15.06,19.08-24.82c18.28-9.76,23.35-0.3,23.35-0.3s-1.27-22.51,16.27-28.26c17.54-5.75,25.17,3.35,25.17,3.35
							s-7.79-16.19,19.58-26.61c27.38-10.42,63.4,68.85,64.61,80.76C1429.49,1536.06,1384.66,1565.34,1364.49,1577.81z"></path>
    <path fill="#030047" d="M1290.79,1608.87c-8.01,0-16.34-1.12-24.99-3.71c-21.95-6.59-44.23-46.85-41.1-74.26
							c1.95-17.1,12.9-27.51,30.95-29.57c1.22-5.37,5.5-16.69,20.43-24.66c10.56-5.64,17.51-5.48,21.86-3.84
							c1.03-7.95,4.83-20.53,18.31-24.95c9.89-3.24,17.1-2.18,21.83-0.29c0.14-1.67,0.52-3.5,1.29-5.42
							c2.91-7.29,10.14-13.18,21.48-17.5c5.94-2.26,12.42-1.26,19.27,2.96c24.57,15.16,48.97,70.27,50.03,80.69
							c2.12,20.86-18.76,44.56-63.84,72.45l0,0l-1.83-2.95l1.51,3.14C1346.31,1593.14,1320.86,1608.87,1290.79,1608.87z
							 M1292.11,1478.77c-2.86,0-6.97,0.94-12.75,4.03c-16.17,8.63-17.21,21.42-17.25,21.96c-0.12,1.74-1.5,3.14-3.24,3.26
							c-16.43,1.06-25.6,9.03-27.27,23.68c-2.98,26.12,18.7,61.57,36.2,66.82c38.1,11.45,70.73-8.73,94.55-23.46l2.14,2.76
							l-1.83-2.95c42.01-25.98,62.39-48.13,60.59-65.84c-0.93-9.16-24.83-61.95-46.77-75.48c-4.99-3.08-9.29-3.86-13.15-2.39
							c-9.24,3.52-15.27,8.17-17.45,13.44c-1.91,4.63-0.3,8.31-0.23,8.46c0.71,1.58,0.16,3.46-1.31,4.39
							c-1.47,0.92-3.38,0.64-4.5-0.69c-0.23-0.26-6.57-7.16-21.44-2.28c-14.76,4.83-13.92,23.96-13.88,24.77
							c0.08,1.62-0.97,3.09-2.53,3.53c-1.58,0.43-3.22-0.27-3.99-1.7C1297.95,1480.97,1296.49,1478.77,1292.11,1478.77z"></path>
    <line x1="1258.64" x2="1288.71" y1="1504.55" y2="1550.51" fill="#fff"></line>
    <path fill="#030047" d="M1288.71,1553.98c-1.13,0-2.24-0.55-2.91-1.57l-30.07-45.96c-1.05-1.6-0.6-3.75,1-4.8
							c1.6-1.05,3.76-0.6,4.8,1l30.07,45.96c1.05,1.6,0.6,3.75-1,4.8C1290.02,1553.79,1289.36,1553.98,1288.71,1553.98z"></path>
    <g>
      <line x1="1301.07" x2="1328.91" y1="1479.44" y2="1521.99" fill="#fff"></line>
      <path fill="#030047" d="M1328.91,1525.46c-1.13,0-2.24-0.55-2.91-1.57l-27.84-42.55c-1.05-1.6-0.6-3.75,1-4.8
							c1.6-1.05,3.76-0.6,4.8,1l27.84,42.55c1.05,1.6,0.6,3.75-1,4.8C1330.23,1525.27,1329.57,1525.46,1328.91,1525.46z"></path>
    </g>
    <g>
      <line x1="1342.51" x2="1369.34" y1="1454.52" y2="1495.53" fill="#fff"></line>
      <path fill="#030047" d="M1369.35,1499.01c-1.13,0-2.24-0.55-2.91-1.57l-26.83-41.01c-1.05-1.6-0.6-3.75,1-4.8
							c1.6-1.05,3.76-0.6,4.8,1l26.83,41.01c1.05,1.6,0.6,3.75-1,4.8C1370.66,1498.82,1370,1499.01,1369.35,1499.01z"></path>
    </g>
  </g>
  <g>
    <circle cx="982.15" cy="807.18" r="63.74" fill="#030047"></circle>
  </g>
  <g>
    <path fill="#fff" d="M975.44,1173.02l-7.2-95.77l-138.34-28.83l-5.26,123.85c0,0,35.25,55.85,99.33,52.23
						C975.48,1221.59,975.44,1173.02,975.44,1173.02z"></path>
    <path fill="#030047" d="M918.09,1228.13c-61.58,0-96.04-53.45-96.39-54.01c-0.38-0.6-0.56-1.29-0.53-2l5.26-123.85
						c0.05-1.02,0.53-1.97,1.34-2.59c0.8-0.63,1.83-0.87,2.84-0.66l138.34,28.83c1.52,0.32,2.64,1.59,2.75,3.14l7.2,95.77
						c0.01,0.09,0.01,0.17,0.01,0.26c0,0.52-0.58,51.88-54.75,54.94C922.11,1228.08,920.08,1228.13,918.09,1228.13z M828.15,1171.28
						c4.78,6.95,38.78,52.97,95.62,49.75c46.78-2.64,48.16-44.78,48.2-47.89l-6.99-93.02l-131.78-27.46L828.15,1171.28z"></path>
    <g>
      <path fill="#fff" d="M828.24,1068.52c-74.61-61.37-75.66-178.21-75.66-178.21l183.77-108.06
								c4.03,2.47,85.69,52.24,114.71,170.83c23.91,97.71-63.45,166.48-170.2,143"></path>
      <path fill="#030047" d="M922.47,1104.18c-13.75,0-27.97-1.55-42.35-4.72c-1.87-0.41-3.05-2.26-2.64-4.13
								c0.41-1.87,2.26-3.07,4.13-2.64c55.32,12.16,107.7-0.39,140.13-33.58c26.66-27.29,35.88-64.66,25.95-105.2
								c-26.43-108.02-97.21-158.43-111.4-167.6L756.11,892.25c0.6,15.54,7.13,118.31,74.34,173.58c1.48,1.22,1.69,3.4,0.47,4.88
								c-1.21,1.48-3.4,1.69-4.88,0.47c-75-61.68-76.91-179.68-76.93-180.86c-0.01-1.24,0.64-2.39,1.71-3.02l183.77-108.07
								c1.11-0.65,2.48-0.64,3.58,0.04c8.95,5.5,87.84,56.82,116.26,172.97c10.51,42.96,0.67,82.63-27.73,111.7
								C1001.09,1090.16,963.84,1104.18,922.47,1104.18z"></path>
      <ellipse cx="986.05" cy="912.46" fill="#030047" rx="9.01" ry="13.43" transform="rotate(-25.714 986.047 912.452)"></ellipse>
      <path fill="#fff" d="M987.49,884.66c-9.46-1.41-19.13,3.58-24.53,12.66"></path>
      <path fill="#030047" d="M962.96 900.79c-.61 0-1.22-.16-1.77-.49-1.65-.98-2.19-3.11-1.21-4.76 6.14-10.32 17.14-15.94 28.02-14.31 1.9.28 3.2 2.05 2.92 3.94-.28 1.89-2.02 3.23-3.94 2.92-8.08-1.2-16.35 3.11-21.04 11C965.3 900.18 964.14 900.79 962.96 900.79zM757.65 780.08c-19.57 24.62 10.61 55.23 10.61 55.23s-43.04-5.41-62.62 44.27c-19.58 49.68 60.6 114.29 60.6 114.29l43.94-31.04c0 0 2.22 8.54 14.21-3.92 0 0 31.4-63.95.52-83.63 0 0 186.15-1.3 169.53-138.98C981.45 628.63 789.8 739.63 757.65 780.08z"></path>
      <ellipse cx="914.09" cy="956.69" fill="#030047" rx="9.01" ry="13.43" transform="rotate(-16.704 914.116 956.777)"></ellipse>
      <path fill="#fff" d="M916.38,928.95c-9.41-1.7-19.23,3-24.91,11.9"></path>
      <path fill="#030047" d="M891.47,944.32c-0.64,0-1.29-0.18-1.86-0.54c-1.62-1.03-2.09-3.17-1.06-4.79
								c6.45-10.12,17.61-15.4,28.45-13.45c1.89,0.34,3.14,2.14,2.8,4.03c-0.34,1.89-2.14,3.14-4.03,2.8
								c-8.06-1.44-16.43,2.61-21.37,10.35C893.74,943.75,892.62,944.32,891.47,944.32z"></path>
      <g>
        <path fill="#fff" d="M812.51,963.56c0,0-49.77-30.66-70.4-17.34c-20.63,13.31,6.72,90.68,35.23,91.77
								c28.51,1.09,47.53-14.61,47.53-14.61"></path>
        <path fill="#030047" d="M780.21,1041.52c-0.99,0-1.99-0.02-3-0.06c-18.39-0.7-35.24-27.49-42.39-53.59
								c-5.99-21.85-3.96-38.51,5.42-44.56c22.23-14.32,71.99,16.01,74.1,17.3c1.63,1.01,2.14,3.14,1.13,4.77
								c-1.01,1.63-3.14,2.14-4.77,1.14c-13.33-8.2-51.3-27.33-66.7-17.38c-6.5,4.19-7.48,18.68-2.49,36.9
								c6.41,23.41,21.62,47.94,35.97,48.49c26.83,1.03,45.01-13.68,45.19-13.82c1.48-1.21,3.67-1,4.88,0.48
								c1.22,1.48,1.01,3.66-0.47,4.88C826.29,1026.71,808.02,1041.52,780.21,1041.52z"></path>
      </g>
      <g>
        <path fill="#fff" d="M958.82,940.86c6.9,8.2,13.79,16.41,20.69,24.61c4.16,4.95,8.42,10.11,9.53,16.3
							c1.1,6.18-1.93,13.7-8.86,16.74"></path>
        <path fill="#030047" d="M980.17,1001.97c-1.34,0-2.61-0.77-3.18-2.08c-0.77-1.76,0.03-3.8,1.78-4.57
							c5.51-2.42,7.63-8.47,6.84-12.95c-0.96-5.39-5.11-10.32-8.77-14.67l-20.69-24.61c-1.23-1.47-1.04-3.66,0.42-4.89
							c1.47-1.23,3.65-1.05,4.89,0.42l20.69,24.61c4.22,5.02,9,10.71,10.29,17.92c1.29,7.26-2.03,16.65-10.88,20.53
							C981.11,1001.88,980.64,1001.97,980.17,1001.97z"></path>
      </g>
      <g>
        <path fill="#030047" d="M953.82,1045.21c-2.61,0-5.22-0.26-7.8-0.78c-10.09-2.07-19.15-8.17-24.86-16.75
							c-1.06-1.6-0.63-3.75,0.97-4.81c1.59-1.06,3.75-0.63,4.81,0.97c4.7,7.06,12.16,12.09,20.47,13.79
							c8.31,1.7,17.15,0.01,24.24-4.64c1.61-1.05,3.75-0.6,4.81,1c1.05,1.6,0.6,3.75-1,4.81
							C969.04,1043,961.45,1045.21,953.82,1045.21z"></path>
      </g>
    </g>
  </g>
  <g>
    <path fill="#030047" d="M1824.28,924.29l38.68,72.42c6.18,11.58-2.21,25.56-15.33,25.56h-103.58c-13.12,0-21.51-13.98-15.33-25.56
					l38.65-72.43c0,0,0,0,0,0c-32.86-11.72-56.4-43.13-56.4-79.97c0-48.32,40.42-87.22,89.33-84.74
					c43.48,2.21,78.86,38.22,80.37,81.73C1881.99,879.49,1858.03,912.29,1824.28,924.29
					C1824.28,924.29,1824.28,924.29,1824.28,924.29z"></path>
  </g>
  <g>
    <circle cx="475.68" cy="923.08" r="160.02" fill="#030047"></circle>
    <polygon fill="#fff" points="449.17 1001.71 394.02 946.55 426.73 913.84 449.17 936.27 524.63 860.81 557.35 893.53"></polygon>
  </g>
  <g>
    <path fill="#605efd" d="M2031.89,1217.15h-456.5c-4.38,0-7.92-3.55-7.92-7.92v-125.36c0-4.38,3.55-7.92,7.92-7.92h456.5
				c4.38,0,7.92,3.55,7.92,7.92v125.36C2039.81,1213.6,2036.26,1217.15,2031.89,1217.15z"></path>
  </g>
  <g>
    <path fill="#fff" d="M1665.87,1146.11c-2.45,0.49-5.34,0.93-8.67,1.31c5.78,6.04,8.67,10.16,8.67,12.37
				c0,1.72-0.68,3.19-2.04,4.4c-1.36,1.21-2.92,1.81-4.69,1.81c-1.87,0-3.77-1-5.71-3c-1.43-1.75-2.86-3.49-4.28-5.21
				c-1.36-1.62-2.57-2.93-3.62-3.95c-7.04,6.88-11.8,10.32-14.28,10.32c-1.8,0-3.37-0.63-4.69-1.9c-1.32-1.26-1.99-2.74-1.99-4.42
				c0-1.55,0.87-3.18,2.6-4.9c1.5-1.23,3.01-2.47,4.54-3.74c0.95-0.81,1.72-1.46,2.3-1.95c-4.22-1.33-7.33-2.42-9.33-3.26
				c-2.75-1.16-4.13-2.98-4.13-5.47c0-1.65,0.62-3.14,1.86-4.48c1.24-1.33,2.79-2,4.67-2c0.98,0,4.86,1.23,11.63,3.68
				c-0.17-3.02-0.26-5.14-0.26-6.37c0-1.75,0.63-3.22,1.89-4.39c1.26-1.18,2.82-1.76,4.69-1.76c1.87,0,3.44,0.59,4.72,1.76
				c1.28,1.17,1.91,2.64,1.91,4.39c0,2.14,0.05,4.11,0.15,5.9c6.19-0.95,10.56-1.42,13.1-1.42c1.87,0,3.41,0.62,4.62,1.87
				c1.21,1.25,1.81,2.71,1.81,4.4C1671.33,1143.37,1669.51,1145.38,1665.87,1146.11z"></path>
  </g>
  <g>
    <path fill="#fff" d="M1745.78,1146.11c-2.45,0.49-5.34,0.93-8.67,1.31c5.78,6.04,8.67,10.16,8.67,12.37
				c0,1.72-0.68,3.19-2.04,4.4c-1.36,1.21-2.92,1.81-4.69,1.81c-1.87,0-3.77-1-5.71-3c-1.43-1.75-2.86-3.49-4.28-5.21
				c-1.36-1.62-2.57-2.93-3.62-3.95c-7.04,6.88-11.8,10.32-14.28,10.32c-1.8,0-3.37-0.63-4.69-1.9c-1.32-1.26-1.99-2.74-1.99-4.42
				c0-1.55,0.87-3.18,2.6-4.9c1.5-1.23,3.01-2.47,4.54-3.74c0.95-0.81,1.72-1.46,2.3-1.95c-4.22-1.33-7.33-2.42-9.33-3.26
				c-2.75-1.16-4.13-2.98-4.13-5.47c0-1.65,0.62-3.14,1.86-4.48c1.24-1.33,2.79-2,4.67-2c0.99,0,4.86,1.23,11.63,3.68
				c-0.17-3.02-0.26-5.14-0.26-6.37c0-1.75,0.63-3.22,1.89-4.39c1.26-1.18,2.82-1.76,4.69-1.76c1.87,0,3.44,0.59,4.72,1.76
				c1.28,1.17,1.91,2.64,1.91,4.39c0,2.14,0.05,4.11,0.15,5.9c6.19-0.95,10.56-1.42,13.1-1.42c1.87,0,3.41,0.62,4.62,1.87
				c1.21,1.25,1.81,2.71,1.81,4.4C1751.24,1143.37,1749.42,1145.38,1745.78,1146.11z"></path>
  </g>
  <g>
    <path fill="#fff" d="M1825.7,1146.11c-2.45,0.49-5.34,0.93-8.67,1.31c5.78,6.04,8.67,10.16,8.67,12.37c0,1.72-0.68,3.19-2.04,4.4
				c-1.36,1.21-2.92,1.81-4.69,1.81c-1.87,0-3.77-1-5.71-3c-1.43-1.75-2.86-3.49-4.28-5.21c-1.36-1.62-2.57-2.93-3.62-3.95
				c-7.04,6.88-11.8,10.32-14.28,10.32c-1.8,0-3.37-0.63-4.69-1.9c-1.32-1.26-1.99-2.74-1.99-4.42c0-1.55,0.87-3.18,2.6-4.9
				c1.5-1.23,3.01-2.47,4.54-3.74c0.95-0.81,1.72-1.46,2.3-1.95c-4.22-1.33-7.33-2.42-9.33-3.26c-2.75-1.16-4.13-2.98-4.13-5.47
				c0-1.65,0.62-3.14,1.86-4.48c1.24-1.33,2.79-2,4.67-2c0.98,0,4.86,1.23,11.63,3.68c-0.17-3.02-0.26-5.14-0.26-6.37
				c0-1.75,0.63-3.22,1.89-4.39c1.26-1.18,2.82-1.76,4.69-1.76c1.87,0,3.44,0.59,4.72,1.76c1.28,1.17,1.91,2.64,1.91,4.39
				c0,2.14,0.05,4.11,0.15,5.9c6.19-0.95,10.56-1.42,13.1-1.42c1.87,0,3.41,0.62,4.62,1.87c1.21,1.25,1.81,2.71,1.81,4.4
				C1831.16,1143.37,1829.34,1145.38,1825.7,1146.11z"></path>
  </g>
  <g>
    <path fill="#fff" d="M1905.62,1146.11c-2.45,0.49-5.34,0.93-8.67,1.31c5.78,6.04,8.67,10.16,8.67,12.37
				c0,1.72-0.68,3.19-2.04,4.4c-1.36,1.21-2.92,1.81-4.69,1.81c-1.87,0-3.77-1-5.71-3c-1.43-1.75-2.86-3.49-4.28-5.21
				c-1.36-1.62-2.57-2.93-3.62-3.95c-7.04,6.88-11.8,10.32-14.28,10.32c-1.8,0-3.37-0.63-4.69-1.9c-1.32-1.26-1.99-2.74-1.99-4.42
				c0-1.55,0.87-3.18,2.6-4.9c1.5-1.23,3.01-2.47,4.54-3.74c0.95-0.81,1.72-1.46,2.3-1.95c-4.22-1.33-7.33-2.42-9.33-3.26
				c-2.75-1.16-4.13-2.98-4.13-5.47c0-1.65,0.62-3.14,1.86-4.48c1.24-1.33,2.79-2,4.67-2c0.99,0,4.86,1.23,11.63,3.68
				c-0.17-3.02-0.26-5.14-0.26-6.37c0-1.75,0.63-3.22,1.89-4.39c1.26-1.18,2.82-1.76,4.69-1.76c1.87,0,3.44,0.59,4.72,1.76
				c1.28,1.17,1.91,2.64,1.91,4.39c0,2.14,0.05,4.11,0.15,5.9c6.19-0.95,10.56-1.42,13.1-1.42c1.87,0,3.41,0.62,4.62,1.87
				c1.21,1.25,1.81,2.71,1.81,4.4C1911.08,1143.37,1909.26,1145.38,1905.62,1146.11z"></path>
  </g>
  <g>
    <path fill="#fff" d="M1985.54,1146.11c-2.45,0.49-5.34,0.93-8.67,1.31c5.78,6.04,8.67,10.16,8.67,12.37
				c0,1.72-0.68,3.19-2.04,4.4c-1.36,1.21-2.92,1.81-4.69,1.81c-1.87,0-3.77-1-5.71-3c-1.43-1.75-2.86-3.49-4.28-5.21
				c-1.36-1.62-2.57-2.93-3.62-3.95c-7.04,6.88-11.8,10.32-14.28,10.32c-1.8,0-3.37-0.63-4.69-1.9c-1.32-1.26-1.99-2.74-1.99-4.42
				c0-1.55,0.87-3.18,2.6-4.9c1.5-1.23,3.01-2.47,4.54-3.74c0.95-0.81,1.72-1.46,2.3-1.95c-4.22-1.33-7.33-2.42-9.33-3.26
				c-2.75-1.16-4.13-2.98-4.13-5.47c0-1.65,0.62-3.14,1.86-4.48c1.24-1.33,2.79-2,4.67-2c0.98,0,4.86,1.23,11.63,3.68
				c-0.17-3.02-0.26-5.14-0.26-6.37c0-1.75,0.63-3.22,1.89-4.39c1.26-1.18,2.82-1.76,4.69-1.76c1.87,0,3.44,0.59,4.72,1.76
				c1.28,1.17,1.91,2.64,1.91,4.39c0,2.14,0.05,4.11,0.15,5.9c6.19-0.95,10.56-1.42,13.1-1.42c1.87,0,3.41,0.62,4.62,1.87
				c1.21,1.25,1.81,2.71,1.81,4.4C1990.99,1143.37,1989.17,1145.38,1985.54,1146.11z"></path>
  </g>
  <g>
    <path fill="#ffcc3d" d="M328.46,1261.95l-24.81,15.62c-11.65,7.26-26.95,3.78-34.23-7.78l-15.62-24.81
			c-7.28-11.57-3.8-26.87,7.77-34.15l24.83-15.7c11.57-7.28,26.87-3.8,34.23,7.78l15.6,24.89
			C343.51,1239.37,340.03,1254.67,328.46,1261.95z"></path>
  </g>
  <g>
    <path fill="#ffcc3d" d="M1204.52,919.39l-20.98,13.2c-9.85,6.14-22.78,3.2-28.94-6.58l-13.2-20.97c-6.15-9.78-3.21-22.72,6.57-28.87
			l20.99-13.27c9.78-6.15,22.71-3.21,28.94,6.58l13.19,21.04C1217.24,900.3,1214.3,913.23,1204.52,919.39z"></path>
  </g>
  <g>
    <path fill="#ffcc3d" d="M722.63,686.34l-16.72,10.52c-7.85,4.89-18.16,2.55-23.07-5.25l-10.53-16.72c-4.91-7.8-2.56-18.11,5.23-23.01
			l16.73-10.58c7.79-4.91,18.11-2.56,23.07,5.25l10.51,16.78C732.76,671.12,730.42,681.43,722.63,686.34z"></path>
  </g>
  <g>
    <path fill="#ffcc3d" d="M1096.17,553.13l-9.59,6.04c-4.5,2.81-10.42,1.46-13.23-3.01l-6.04-9.59c-2.81-4.47-1.47-10.39,3-13.2
			l9.6-6.07c4.47-2.81,10.39-1.47,13.23,3.01l6.03,9.62C1101.98,544.4,1100.64,550.31,1096.17,553.13z"></path>
  </g>
</svg>
