<svg xmlns="http://www.w3.org/2000/svg" xml:space="preserve" id="statistics" x="0" y="0" enable-background="new 0 0 2500 2500" version="1.1" viewBox="0 0 2500 2500">
  <path fill="#030047" d="M2052.32,2054.76H275.51c-1.99,0-3.6-1.61-3.6-3.6c0-1.99,1.61-3.6,3.6-3.6h1776.81c1.99,0,3.6,1.61,3.6,3.6
				C2055.92,2053.15,2054.31,2054.76,2052.32,2054.76z"></path>
  <path fill="#fff" d="M2246.4,608.62v620.63c0,67.47-54.7,122.18-122.18,122.18h-683.58c-67.47,0-122.18-54.7-122.18-122.18
								V608.62c0-67.48,54.7-122.18,122.18-122.18h683.58C2191.69,486.45,2246.4,541.15,2246.4,608.62z"></path>
  <path fill="#030047" d="M2124.22,1355.03h-683.57c-69.35,0-125.78-56.42-125.78-125.78V608.62
								c0-69.35,56.42-125.78,125.78-125.78h683.57c69.35,0,125.78,56.42,125.78,125.78v620.63
								C2250,1298.6,2193.57,1355.03,2124.22,1355.03z M1440.65,490.05c-65.38,0-118.57,53.19-118.57,118.57v620.63
								c0,65.38,53.19,118.57,118.57,118.57h683.57c65.38,0,118.58-53.19,118.58-118.57V608.62c0-65.38-53.19-118.57-118.58-118.57
								H1440.65z"></path>
  <rect width="367.01" height="124.24" x="1409.48" y="721.12" fill="#e6f3fc"></rect>
  <polygon fill="#e6f3fc" points="1924.15 926.29 1409.48 926.29 1414.38 877.84 1929.05 877.84"></polygon>
  <path fill="#605efd" d="M2246.4,601.48v44.45h-927.93v-44.45c0-63.53,51.51-115.03,115.04-115.03h697.86
								C2194.89,486.45,2246.4,537.96,2246.4,601.48z"></path>
  <path fill="#030047" d="M2246.4,649.53h-927.93c-1.99,0-3.6-1.61-3.6-3.6v-44.45c0-65.42,53.22-118.64,118.63-118.64h697.86
								c65.42,0,118.64,53.22,118.64,118.64v44.45C2250,647.92,2248.39,649.53,2246.4,649.53z M1322.07,642.33h920.72v-40.85
								c0-61.44-49.99-111.43-111.43-111.43H1433.5c-61.44,0-111.43,49.99-111.43,111.43V642.33z"></path>
  <circle cx="1447.18" cy="571.29" r="22.18" fill="#fff"></circle>
  <circle cx="1524.58" cy="571.29" r="22.18" fill="#fff"></circle>
  <circle cx="1601.97" cy="571.29" r="22.18" fill="#fff"></circle>
  <path fill="#fff" d="M1202.9,1481.17l-123.09,253.95c-10.59,24.33-27.93,44.33-49.18,58.27
								c-21.3,13.94-46.55,21.78-73.06,21.78c-64.82,0-120.27-46.59-131.42-110.45l-52.82-329.48l-15.28-58.52
								c-1.94-7.52-2.83-15.24-2.67-22.95c-2.69-19.46-6.65-38.26,1.45-63.29l130.33-41.99l16.41-52.5
								c4-12.77,15.76-20.97,28.45-20.97c2.79,0,5.62,0.4,8.41,1.21c13.17,3.84,22.02,16.2,21.46,29.9l-5.7,136.35
								c-0.36,8.81-2.14,17.5-5.25,25.78l-14.25,22.87l27.18,182.34l58.15-109.35L1202.9,1481.17z"></path>
  <path fill="#030047" d="M957.56,1818.77c-66.72,0-123.49-47.7-134.97-113.43l-52.82-329.53l-15.2-58.18
								c-1.99-7.72-2.93-15.68-2.79-23.64l-0.75-5.26c-2.56-17.66-5.2-35.93,2.39-59.36c0.36-1.1,1.22-1.96,2.32-2.32l128.55-41.42
								l15.85-50.71c4.4-14.06,17.22-23.5,31.89-23.5c3.14,0,6.3,0.46,9.41,1.36c14.8,4.31,24.69,18.09,24.05,33.51l-5.7,136.35
								c-0.38,9.18-2.22,18.23-5.48,26.9c-0.08,0.22-0.19,0.44-0.31,0.64l-13.55,21.75l25.38,170.22l53.02-99.71
								c0.88-1.65,2.88-2.35,4.59-1.62l180.88,77.03c0.91,0.39,1.61,1.13,1.96,2.05c0.35,0.92,0.3,1.95-0.13,2.83l-123.09,253.95
								c-10.58,24.33-28.05,45.03-50.45,59.71C1010.24,1811.04,984.29,1818.77,957.56,1818.77z M759.71,1233.35
								c-6.4,20.99-4.05,37.21-1.57,54.36l0.8,5.57c0.02,0.19,0.04,0.38,0.03,0.57c-0.15,7.41,0.71,14.81,2.56,21.98l15.27,58.51
								l52.89,329.82c10.88,62.22,64.65,107.41,127.87,107.41c25.33,0,49.91-7.33,71.09-21.19c21.22-13.92,37.77-33.52,47.85-56.7
								L1198,1483l-174.37-74.25l-56.6,106.44c-0.73,1.37-2.28,2.12-3.79,1.86c-1.53-0.26-2.72-1.48-2.95-3.02l-27.18-182.34
								c-0.12-0.85,0.06-1.71,0.51-2.44l14.05-22.57c2.91-7.85,4.56-16.03,4.91-24.33l5.7-136.35c0.5-12.1-7.26-22.92-18.87-26.3
								c-2.45-0.71-4.94-1.07-7.4-1.07c-11.5,0-21.56,7.41-25.01,18.45l-16.41,52.49c-0.35,1.12-1.22,2-2.33,2.35L759.71,1233.35z"></path>
  <path fill="#ffcc3d" d="M1311.22,1277.84l-161.72,14.96c-37.21-4.17-73.35,14.09-92.06,46.52l-82.54,119l195.16,162.24
									L1311.22,1277.84z"></path>
  <polyline fill="#ffcc3d" points="1057.44 1339.33 974.9 1458.33 1170.06 1620.57 1275.7 1383.35"></polyline>
  <path fill="#030047" d="M1170.06,1624.17c-0.83,0-1.65-0.29-2.3-0.83L972.6,1461.1c-1.43-1.19-1.72-3.29-0.66-4.82l82.54-119
										c1.13-1.63,3.37-2.04,5.01-0.91c1.63,1.13,2.04,3.38,0.91,5.01l-80.66,116.29l188.97,157.09l103.7-232.87
										c0.82-1.82,2.95-2.63,4.76-1.82c1.82,0.81,2.64,2.94,1.83,4.76l-105.63,237.21c-0.46,1.03-1.37,1.79-2.48,2.04
										C1170.61,1624.14,1170.33,1624.17,1170.06,1624.17z"></path>
  <path fill="#ffcc3d" d="M564.02,808.41l96.78-93.44c6.91-6.67,3.24-18.37-6.24-19.9l-110.78-17.93
									c-7.68-1.24-14.4,5.24-13.43,12.97l14.01,111.37C545.55,811.01,557.11,815.08,564.02,808.41z"></path>
  <path fill="#030047" d="M715.42,1348.46l38.28,24.04c2.78,1.75,6.45,0.91,8.2-1.87l171-272.27L884.54,1068l-171,272.27
									C711.8,1343.05,712.64,1346.72,715.42,1348.46z"></path>
  <path fill="#030047" d="M749.69,1368.45c-5.84,0-11.74-1.59-17.04-4.92c-7.27-4.57-12.33-11.69-14.25-20.06
									c-1.91-8.37-0.45-16.99,4.12-24.26l158.98-253.13c0.51-0.81,1.31-1.38,2.25-1.6c0.95-0.21,1.91-0.05,2.72,0.46l48.35,30.36
									c1.69,1.06,2.19,3.28,1.13,4.97l-158.97,253.13C770.87,1363.12,760.39,1368.45,749.69,1368.45z M885.68,1072.96
									l-157.07,250.08c-3.54,5.64-4.68,12.33-3.19,18.82c1.48,6.5,5.41,12.03,11.05,15.57c11.65,7.32,27.07,3.79,34.39-7.86
									l157.06-250.08L885.68,1072.96z"></path>
  <path fill="#605efd" stroke="#030047" stroke-linecap="round" stroke-linejoin="round" stroke-miterlimit="10" stroke-width="1.5" d="M1113.83,768.02c-23.36-20.85-54.03-33.22-89.55-33.5c-49.38-0.37-98.08,22.71-135.66,59.81
									c-8.61,8.45-16.65,17.7-23.92,27.56c-20.69,27.84-35.68,60.62-42.15,95.78c-11.88,64.9,8.16,122.2,48.25,155.42
									c2.3,1.9,4.69,3.76,7.11,5.46c15.4,11.07,33.38,18.83,53.34,22.43c8.16,1.54,16.61,2.3,25.38,2.38
									c92.75,0.73,183.07-81.27,201.74-183.15C1169.88,857.37,1151.45,801.64,1113.83,768.02z"></path>
  <path fill="#fff" d="M1126.15,919.97c-5.33,29.26-18.02,56.46-35.52,79.41c-7.44,9.74-15.72,18.71-24.73,26.71
									c-29.3,26.19-65.79,42.19-102.77,41.91c-74.96-0.56-123.46-67.77-108.38-150.09c4.97-27,16.16-52.29,31.6-74.04
									c7.11-10.02,15.11-19.32,23.84-27.64c30.07-28.81,68.58-46.64,107.62-46.35C1092.73,770.48,1141.27,837.65,1126.15,919.97z"></path>
  <path fill="#030047" d="M964.11,1071.6c-0.34,0-0.67,0-1,0c-34.53-0.26-65.17-14.45-86.27-39.96
									c-24.24-29.3-33.58-70.99-25.63-114.38c4.9-26.6,16.03-52.7,32.21-75.47c7.28-10.25,15.45-19.73,24.29-28.16
									c32.16-30.81,71.43-47.6,110.13-47.35c34.55,0.28,65.2,14.49,86.29,40.02c24.2,29.29,33.52,70.96,25.57,114.31l0,0
									c-5.24,28.77-17.76,56.76-36.2,80.95c-7.61,9.97-16.09,19.13-25.2,27.22C1037.37,1056.42,1000.41,1071.6,964.11,1071.6z
									 M1016.91,773.48c-36.18,0-74.11,16.5-104.23,45.35c-8.51,8.12-16.38,17.25-23.4,27.12c-15.57,21.93-26.29,47.03-31,72.6
									c-7.56,41.29,1.22,80.84,24.1,108.49c19.72,23.84,48.4,37.1,80.77,37.34c34.66,0.17,70.47-14.29,100.34-40.99
									c8.78-7.8,16.94-16.61,24.26-26.21c17.75-23.28,29.81-50.21,34.84-77.87c0,0,0,0,0,0c7.57-41.25-1.19-80.77-24.03-108.43
									c-19.72-23.86-48.41-37.15-80.8-37.41C1017.5,773.48,1017.2,773.48,1016.91,773.48z"></path>
  <g>
    <path fill="#030047" d="M870.79,1073.09c24.37,29.3,63.58,45.96,106.5,46.28c92.74,0.69,182.24-79.54,198.41-181.82
									c11.72-74.08-9.07-140.1-61.87-169.53c37.62,33.62,56.05,89.35,44.53,152.19c-18.67,101.88-108.99,183.87-201.74,183.15
									C922.96,1103.11,893.62,1092,870.79,1073.09z"></path>
    <path fill="#030047" d="M978.47,1122.97c-0.41,0-0.8,0-1.21,0c-44.56-0.33-84.37-17.68-109.24-47.58
									c-1.19-1.43-1.1-3.53,0.22-4.85c1.32-1.32,3.41-1.42,4.85-0.23c22.98,19.03,51.87,29.21,83.56,29.44c0.39,0,0.8,0,1.2,0
									c90.52,0,178.71-80.56,196.97-180.2c10.85-59.22-5.37-114.87-43.39-148.86c-1.37-1.22-1.6-3.28-0.53-4.77
									c1.07-1.49,3.08-1.95,4.69-1.06c52.41,29.21,76.21,93.98,63.68,173.24C1163.1,1040.31,1073.18,1122.97,978.47,1122.97z
									 M906.47,1097.89c20.36,11.4,44.73,17.68,70.85,17.88c0.38,0,0.77,0,1.16,0c91.32,0,178.04-79.94,193.66-178.79
									c9.46-59.77-2.34-110.81-31.86-143.39c22.27,34.62,30.31,79.88,21.62,127.26c-18.85,102.89-110.23,186.1-204.06,186.1
									c-0.42,0-0.82,0-1.24,0C938.91,1106.83,922.03,1103.75,906.47,1097.89z"></path>
  </g>
  <g>
    <polygon fill="#030047" points="1615.27 2052.55 1626.2 1804.71 1151.78 1835.73 1115.67 2052.55"></polygon>
  </g>
  <g>
    <path fill="#ffcc3d" d="M1387.27,1263.92c47.36-1.19,188.64,17.98,188.64,17.98c28.41,5.11,49.57,29.11,51.08,57.94
									l9.55,524.87l-502.28-4.59l38.69-515.77c2.22-29.53,24.95-53.4,54.34-57.05C1227.29,1287.3,1346.86,1264.93,1387.27,1263.92
									z"></path>
    <line x1="1134.26" x2="1168.12" y1="1865.02" y2="1413.56" fill="#fff"></line>
    <path fill="#030047" d="M1134.26,1868.62c-0.09,0-0.18,0-0.27-0.01c-1.98-0.15-3.48-1.88-3.32-3.86l33.86-451.46
										c0.15-1.98,1.96-3.46,3.86-3.32c1.98,0.15,3.47,1.88,3.32,3.86l-33.86,451.46
										C1137.71,1867.18,1136.13,1868.62,1134.26,1868.62z"></path>
    <path fill="#fff" d="M1915.63,1714.86c-5.43,15.37-13.21,29.68-23,42.4c-9.8,12.73-21.66,23.96-35.15,33.09l-250.29,165.29
									L1494,2044c-5.04,2.93-11.33,2.59-16.33,0.62c-3.46-1.3-6.48-3.51-8.6-6.72c-5.57-8.07-4.13-19.5,3.79-25.35l25.88-20.84
									l-48.45,38.56c-5.48,4.42-13.01,6-19.69,3.51c-0.1-0.05-0.14-0.1-0.14-0.1c-3.46-1.3-6.53-3.51-8.64-6.72
									c-5.52-8.02-4.03-19.45,3.79-25.26l49.32-39.66l-73.86,58.97c-5.09,2.93-11.33,2.55-16.38,0.63
									c-3.46-1.25-6.43-3.55-8.6-6.72c-5.57-8.07-3.75-19.02,4.08-24.87l70.69-57.91l-51.77,41.59
									c-5.04,2.98-11.33,2.59-16.42,0.63c-3.36-1.25-6.44-3.51-8.55-6.72c-5.52-8.02-3.7-19.02,4.08-24.83l87.88-71.74
									l-48.55,10.52c-3.36,0.38-6.58-0.05-9.7-1.15c-5.33-2.07-9.8-6.58-11.77-12.44c-3.79-11.48,3.41-23.63,15.32-25.98
									l107.18-44.18v-0.05l190.41-131.39l-85.09-106.32l123.51-138.45l133.65,137.15
									C1921.29,1599.99,1934.64,1660.45,1915.63,1714.86z"></path>
    <path fill="#030047" d="M1485.52,2049.76c-3.03,0-6.15-0.59-9.17-1.78c-4.3-1.61-7.87-4.42-10.28-8.1
									c-3.02-4.36-4.26-9.5-3.89-14.46l-9.64,7.67c-6.65,5.36-15.54,6.93-23.19,4.06c-0.15-0.06-0.32-0.14-0.48-0.23
									c-4.23-1.66-7.71-4.42-10.05-7.99c-2.99-4.35-4.23-9.47-3.85-14.41l-11.63,9.29c-0.14,0.11-0.29,0.22-0.45,0.31
									c-5.49,3.17-12.59,3.49-19.46,0.87c-4.14-1.49-7.71-4.29-10.29-8.06c-6.66-9.65-4.52-22.74,4.9-29.79l9.59-7.86
									c-2.06-0.27-4.16-0.8-6.23-1.6c-4.25-1.58-7.82-4.39-10.26-8.1c-6.61-9.6-4.46-22.67,4.93-29.69l76.15-62.17l-33.89,7.34
									c-4.16,0.49-7.95,0.04-11.66-1.28c-6.55-2.53-11.73-8.01-13.98-14.68c-2.12-6.43-1.38-13.45,2.02-19.28
									c3.38-5.79,9.07-9.9,15.65-11.3l106.35-43.84l187.08-129.09l-82.68-103.3c-1.1-1.37-1.05-3.34,0.13-4.65l123.52-138.45
									c0.67-0.75,1.61-1.18,2.61-1.2c1.11-0.01,1.96,0.37,2.66,1.09l133.65,137.15c41.44,42.48,55,103.72,35.39,159.82
									c0,0,0,0.01,0,0.01c-5.53,15.69-13.45,30.3-23.54,43.4c-10.18,13.21-22.29,24.61-35.99,33.88l-250.32,165.31l-112.95,88.19
									c-0.13,0.1-0.27,0.19-0.41,0.27C1492.79,2048.87,1489.22,2049.76,1485.52,2049.76z M1498.75,1988.1
									c1.06,0,2.1,0.46,2.81,1.35c1.24,1.55,0.99,3.81-0.55,5.06l-25.88,20.84c-6.35,4.7-7.68,13.85-3.09,20.5
									c1.64,2.5,3.94,4.29,6.89,5.4c4.65,1.83,9.48,1.73,13.06-0.25l112.98-88.2l250.52-165.46
									c13.04-8.82,24.58-19.68,34.29-32.28c9.61-12.5,17.17-26.43,22.45-41.4c18.7-53.5,5.76-111.89-33.76-152.4l-130.95-134.38
									l-118.92,133.29l83.2,103.94c0.62,0.78,0.9,1.79,0.75,2.78c-0.15,0.99-0.69,1.87-1.52,2.44L1521,1800.46
									c-0.3,0.28-0.65,0.51-1.04,0.67l-107.19,44.18c-0.22,0.09-0.45,0.16-0.68,0.2c-4.71,0.93-8.78,3.82-11.19,7.94
									c-2.4,4.11-2.9,8.86-1.41,13.38c1.57,4.65,5.17,8.48,9.65,10.21c2.63,0.93,5.27,1.24,7.99,0.93l48.2-10.46
									c1.64-0.35,3.29,0.46,4.01,1.96c0.72,1.5,0.32,3.3-0.97,4.35l-87.88,71.74c-6.41,4.79-7.84,13.53-3.39,20
									c1.64,2.49,3.99,4.33,6.84,5.39c4.74,1.83,9.61,1.74,13.13-0.23l51.55-41.41c1.54-1.24,3.8-1,5.05,0.54
									c1.25,1.54,1.02,3.8-0.51,5.05l-70.69,57.91c-6.43,4.82-7.86,13.57-3.4,20.04c1.73,2.53,4.09,4.38,6.86,5.38
									c4.74,1.8,9.59,1.7,13.14-0.24l73.63-58.79c1.54-1.23,3.82-0.99,5.06,0.56c1.24,1.55,0.99,3.81-0.55,5.06l-49.32,39.66
									c-6.3,4.68-7.64,13.8-3.09,20.41c1.6,2.44,3.99,4.29,6.94,5.39c0.22,0.08,0.42,0.18,0.61,0.3
									c4.89,1.76,11.03,0.63,15.7-3.14l48.47-38.58C1497.17,1988.36,1497.96,1988.1,1498.75,1988.1z M1915.62,1714.86h0.05
									H1915.62z"></path>
    <path fill="#ffcc3d" d="M1560.97,1284.12l56.85,10.66c22.05,4.13,42.19,15.27,57.42,31.74l107.19,115.96l-140.72,162.74
									l-140.72-134.78L1560.97,1284.12z"></path>
    <g>
      <polyline fill="#ffcc3d" points="1675.24 1326.52 1782.43 1442.48 1641.71 1605.21 1533.84 1501.89"></polyline>
      <path fill="#030047" d="M1641.71,1608.81c-0.93,0-1.82-0.36-2.49-1l-107.88-103.33c-1.44-1.38-1.49-3.66-0.11-5.09
										c1.38-1.44,3.65-1.49,5.09-0.11l105.14,100.71l136.14-157.43l-105.01-113.59c-1.35-1.46-1.26-3.74,0.2-5.09
										c1.45-1.35,3.74-1.26,5.09,0.2l107.19,115.96c1.24,1.35,1.28,3.41,0.08,4.8l-140.72,162.73c-0.65,0.75-1.57,1.2-2.56,1.24
										C1641.83,1608.81,1641.77,1608.81,1641.71,1608.81z"></path>
    </g>
    <g opacity=".4">
      <path fill="#fff" d="M1704.43,1532.71c-9.46-10.8-15.13-24.88-15.13-40.29c0-33.9,27.52-61.37,61.42-61.37
									c9.65,0,18.73,2.21,26.84,6.15"></path>
    </g>
  </g>
  <g>
    <path fill="#fff" d="M756.83,1230.48c0,0-1.83-20.31,21.79-27.54c0,0-4.85-29.66,23.14-33.53c0,0-7.27-28.55,19.56-32.5
								c0,0-1.2-40.93,38.52-30.95c39.72,9.97,76.87,62.08,72.74,76.01c-4.13,13.93-26.83,11.18-26.83,11.18
								s18.15,12.11,10.49,26.65c-5.12,9.72-26.83,8.43-26.83,8.43s13.93,19.09,1.2,28.89c-12.73,9.8-26.65,1.2-26.65,1.2
								s12.55,13.93,7.55,22.87c-5.66,10.11-20.62,18.57-35.23,14.61s-68.63-41.68-68.63-41.68"></path>
    <path fill="#030047" d="M843.89,1300.41c-2.82,0-5.69-0.36-8.56-1.13c-15.05-4.07-67.52-40.65-69.74-42.21
								c-1.63-1.14-2.03-3.38-0.89-5.01c1.14-1.63,3.38-2.03,5.02-0.89c14.88,10.39,56.01,38.05,67.5,41.16
								c12.83,3.47,26.16-3.99,31.15-12.9c3.04-5.44-4.28-15.58-7.08-18.71c-1.2-1.33-1.23-3.34-0.08-4.72
								c1.15-1.37,3.13-1.7,4.65-0.76c0.48,0.28,12.04,7.12,22.57-0.99c9.78-7.54-1.8-23.75-1.92-23.92
								c-0.82-1.13-0.91-2.63-0.24-3.85c0.67-1.22,1.83-1.94,3.37-1.87c5.05,0.29,20.15-0.28,23.42-6.51
								c6.05-11.48-8.67-21.56-9.3-21.99c-1.38-0.93-1.95-2.68-1.37-4.24c0.58-1.56,2.2-2.53,3.8-2.33
								c0.22,0.02,19.74,2.21,22.95-8.63c0.65-2.2-0.46-8.06-5.75-17.33c-12.57-22.04-38.73-47.72-64.42-54.17
								c-10.56-2.65-18.78-1.68-24.49,2.89c-9.87,7.9-9.56,24.31-9.55,24.47c0.05,1.82-1.28,3.4-3.08,3.66
								c-6.47,0.95-11.18,3.58-14.01,7.81c-5.5,8.22-2.62,20.13-2.58,20.25c0.25,0.99,0.06,2.05-0.51,2.89
								c-0.57,0.85-1.48,1.42-2.49,1.55c-6.96,0.96-12.21,3.78-15.6,8.38c-6.4,8.67-4.49,20.88-4.47,21c0.29,1.78-0.78,3.5-2.5,4.03
								c-20.58,6.29-19.32,23.06-19.26,23.77c0.18,1.98-1.28,3.73-3.26,3.91c-2.02,0.16-3.74-1.28-3.91-3.27
								c-0.02-0.22-1.65-21.63,21.52-30.35c-0.28-5.02,0.05-15.19,6.09-23.37c3.94-5.34,9.56-8.88,16.75-10.56
								c-0.65-5.14-0.88-14.54,4.22-22.2c3.53-5.29,8.9-8.79,15.98-10.41c0.38-6.02,2.36-19.3,12.14-27.16
								c7.55-6.07,17.9-7.51,30.78-4.28c27.64,6.94,55.6,34.22,68.92,57.58c3.96,6.95,8.29,16.56,6.4,22.94
								c-2.97,10.02-13.1,13-20.93,13.76c5.33,6.25,9.33,15.24,4.33,24.73c-4.2,7.98-16.04,9.93-23.66,10.33
								c4.23,8.49,6.79,20.66-2.95,28.16c-6.93,5.33-14.08,6-19.75,5.19c2.81,5.34,4.79,12.07,1.59,17.8
								C869.33,1292.45,857.19,1300.41,843.89,1300.41z"></path>
  </g>
  <g>
    <path fill="#fff" d="M905.75,1193.14c0,0-52.36-58.17-84.43-56.23"></path>
    <path fill="#030047" d="M905.75,1196.74c-0.98,0-1.96-0.4-2.68-1.19c-0.5-0.56-49.97-55.09-80.1-55.09
								c-0.49,0-0.97,0.01-1.44,0.04c-1.84,0.12-3.69-1.39-3.81-3.38c-0.12-1.99,1.39-3.69,3.38-3.81c0.58-0.04,1.17-0.05,1.76-0.05
								c33.44,0,83.42,55.08,85.57,57.47c1.33,1.48,1.21,3.76-0.27,5.09C907.47,1196.44,906.61,1196.74,905.75,1196.74z"></path>
  </g>
  <g>
    <path fill="#fff" d="M801.75,1169.41c0,0,12.68-2.24,28.33,6.36s59.33,52.45,59.33,52.45"></path>
    <path fill="#030047" d="M889.41,1231.82c-0.92,0-1.85-0.35-2.55-1.06c-0.43-0.44-43.49-43.58-58.51-51.84
								c-14.21-7.81-25.87-5.99-25.99-5.97c-1.97,0.32-3.81-0.99-4.15-2.94c-0.34-1.95,0.96-3.81,2.92-4.15
								c0.56-0.1,14.13-2.35,30.69,6.75c15.92,8.75,58.35,51.26,60.14,53.06c1.4,1.41,1.4,3.69-0.01,5.09
								C891.25,1231.47,890.33,1231.82,889.41,1231.82z"></path>
  </g>
  <g>
    <path fill="#fff" d="M778.61,1202.94c0,0,13.34-5.18,25.68,1.55s59.67,53.83,59.67,53.83"></path>
    <path fill="#030047" d="M863.96,1261.92c-0.92,0-1.84-0.35-2.54-1.05c-13.07-13-49.11-47.9-58.85-53.22
								c-10.74-5.86-22.53-1.4-22.65-1.35c-1.84,0.72-3.94-0.2-4.66-2.05c-0.72-1.85,0.2-3.94,2.05-4.66
								c0.61-0.24,15.05-5.7,28.71,1.74c12.64,6.9,58.54,52.5,60.49,54.43c1.41,1.4,1.42,3.68,0.01,5.09
								C865.81,1261.56,864.89,1261.92,863.96,1261.92z"></path>
  </g>
  <g>
    <line x1="963.86" x2="971.01" y1="1513.5" y2="1555.48" fill="#fff"></line>
    <path fill="#030047" d="M971,1559.08c-1.72,0-3.25-1.24-3.55-3l-7.15-41.98c-0.33-1.96,0.98-3.82,2.95-4.16
								c1.99-0.33,3.82,0.98,4.16,2.95l7.15,41.98c0.33,1.96-0.98,3.82-2.95,4.15C971.41,1559.06,971.2,1559.08,971,1559.08z"></path>
  </g>
  <g>
    <path fill="#ffcc3d" d="M1088.5,997.21c-7.44,9.74-16.05,19.38-25.06,27.38L886.35,843.87l-21.66-21.98l-15.68-15.92
									l-91.61,93.96c-3.39,3.47-8,5.41-12.81,5.5c-4.69,0.08-9.5-1.82-12.93-5.17L601.77,773.23l-11.19-10.95
									c-7.19-7.03-7.31-18.55-0.32-25.7c7.03-7.19,18.55-7.31,25.74-0.32l11.96,11.68l116.1,113.56l91.86-94.2
									c3.44-3.52,8.08-5.5,12.97-5.5c0.04,0,0.04,0,0.04,0c4.89,0,9.54,1.94,12.97,5.41l26.71,27.12l21.58,21.9L1088.5,997.21z"></path>
  </g>
  <g>
    <path fill="#fff" d="M1451.69,1134.82v134.51c-87.16,106.32-178.27,17.76-178.37,17.57l42.61-178.2L1451.69,1134.82z"></path>
    <path fill="#030047" d="M1357.18,1325.28c-3.78,0-7.58-0.2-11.42-0.62c-42.77-4.58-74.65-34.18-75.65-36.12
								c-0.39-0.76-0.5-1.64-0.3-2.48l42.61-178.2c0.45-1.87,2.28-3.06,4.18-2.7l135.76,26.12c1.7,0.33,2.92,1.81,2.92,3.54v134.51
								c0,0.83-0.29,1.64-0.82,2.28C1425.25,1307.27,1392.56,1325.28,1357.18,1325.28z M1277.31,1285.69
								c7.17,6.41,41.04,34.34,84.24,32.26c31.19-1.5,60.29-18.29,86.53-49.92V1137.8l-129.46-24.91L1277.31,1285.69z
								 M1273.32,1286.9h0.05H1273.32z"></path>
  </g>
  <g>
    <path fill="#fff" d="M1448.5,1151.6c48.47-68.97,63.54-182.33,63.54-182.33l-165.25-96.11
									c-4.15,2.77-119.47,34.97-137.3,163.85c-15.88,114.79,14.04,193.76,175.33,165.27"></path>
    <path fill="#030047" d="M1324.63,1211.78c-40.19,0-70.03-9.76-90.45-29.43c-28.75-27.7-38-75.4-28.25-145.83
									c10.66-77.04,58.94-135.72,135.96-165.22c1.55-0.6,2.61-0.98,3.08-1.22c1.14-0.76,2.46-0.71,3.65-0.02l165.25,96.11
									c1.26,0.73,1.95,2.15,1.76,3.59c-0.15,1.14-15.75,115.03-64.17,183.93c-1.14,1.62-3.38,2.02-5.02,0.88
									c-1.63-1.14-2.02-3.39-0.87-5.02c43.58-62.01,60.08-161.78,62.58-178.37l-161.56-93.96c-0.55,0.22-1.24,0.48-2.12,0.82
									c-74.45,28.52-121.11,85.16-131.39,159.48c-9.41,67.98-0.87,113.67,26.11,139.65c27.86,26.83,75.28,33.89,145.02,21.57
									c2.02-0.34,3.83,0.96,4.17,2.92c0.35,1.96-0.96,3.83-2.92,4.17C1363.02,1209.79,1342.77,1211.78,1324.63,1211.78z"></path>
    <path fill="#030047" d="M1415.94,844.82c0,0,54.39-21.43,80.67-1.15c26.27,20.28-3.23,68.22-3.23,68.22s45.17-7.38,67.76,44.25
								s-59.46,122.88-59.46,122.88s-47.26-30.84-47.54-31.03c0.92,0.6-2.74,2.96-3.02,3.06c-4.23,1.55-11.54-5.23-13.66-8.09
								c-3.88-5.23-4.78-12.84-7.36-18.94c-3.06-7.23-6.91-14.12-11.42-20.54c-17.6-25.08-45.38-43.29-75.88-47.6
								c-17.97-2.54-36.41-0.67-54.24-4.03c-22.29-4.2-42.89-16.81-56.77-34.75s-20.91-41.04-19.39-63.67
								c0.89-13.18,4.87-26.63,13.87-36.31c12.85-13.81,33.01-17.39,51.66-20.21c27.2-4.11,55.25-8.18,81.96-1.59
								c26.71,6.59,52.06,26.59,56.26,53.78"></path>
    <ellipse cx="1258.13" cy="1022.7" fill="#030047" rx="14.17" ry="9.51" transform="rotate(-64.526 1258.043 1022.666)"></ellipse>
    <path fill="#fff" d="M1260.21,993.4c10.09-0.25,19.57,6.22,24.06,16.42"></path>
    <path fill="#030047" d="M1284.26,1013.42c-1.38,0-2.71-0.8-3.3-2.15c-3.91-8.89-12.11-14.46-20.67-14.27
									c-2.05,0.12-3.64-1.52-3.69-3.51c-0.05-1.99,1.52-3.64,3.51-3.69c11.5-0.3,22.36,7,27.44,18.57
									c0.8,1.82-0.03,3.95-1.85,4.75C1285.24,1013.33,1284.75,1013.42,1284.26,1013.42z"></path>
    <ellipse cx="1332.76" cy="1058.18" fill="#030047" rx="14.17" ry="9.51" transform="rotate(-64.526 1332.66 1058.138)"></ellipse>
    <g>
      <path fill="#fff" d="M1334.83,1028.87c10.09-0.25,19.57,6.22,24.06,16.42"></path>
      <path fill="#030047" d="M1358.89,1048.9c-1.38,0-2.7-0.8-3.3-2.15c-3.84-8.72-11.72-14.28-20.19-14.28
									c-0.19,0-0.37,0.01-0.57,0.01c-1.95,0-3.55-1.55-3.6-3.51c-0.05-1.99,1.52-3.64,3.51-3.69c11.43-0.31,22.35,7,27.45,18.57
									c0.8,1.82-0.03,3.95-1.85,4.75C1359.87,1048.8,1359.38,1048.9,1358.89,1048.9z"></path>
    </g>
    <g>
      <path fill="#fff" d="M1451.7,1048.86c0,0,51.29-34.27,73.57-21.03s-3.55,95.89-33.58,98.15
									c-30.03,2.26-50.69-13.56-50.69-13.56"></path>
      <path fill="#030047" d="M1485.75,1129.8c-27.63,0-46.11-13.89-46.94-14.53c-1.58-1.21-1.88-3.46-0.67-5.04
									c1.2-1.58,3.46-1.88,5.05-0.68c0.2,0.15,20.07,14.94,48.23,12.83c15.14-1.14,30.24-27.63,36.1-52.58
									c4.56-19.44,2.96-34.7-4.08-38.88c-16.67-9.9-55.98,11.75-69.73,20.93c-1.66,1.11-3.9,0.66-5-1
									c-1.1-1.65-0.66-3.89,0.99-4.99c2.17-1.45,53.45-35.36,77.41-21.13c10.11,6,12.88,23.47,7.42,46.72
									c-6.52,27.78-23.24,56.67-42.57,58.12C1489.84,1129.73,1487.77,1129.8,1485.75,1129.8z"></path>
    </g>
    <g>
      <path fill="#fff" d="M1481.3,1066.12c2.31-2.76,5.2-5.03,8.42-6.63c2.02-1,4.22-1.75,6.48-1.73c2.26,0.02,4.58,0.9,5.98,2.66
								c1.99,2.5,1.74,6.08,1.05,9.2c-1.26,5.69-3.7,11.11-7.12,15.83"></path>
      <path fill="#030047" d="M1496.11,1089.06c-0.73,0-1.47-0.22-2.11-0.68c-1.61-1.17-1.97-3.42-0.81-5.03
								c3.11-4.31,5.36-9.32,6.51-14.5c0.66-2.97,0.54-5.05-0.35-6.18c-0.63-0.79-1.85-1.29-3.2-1.3c-1.54-0.04-2.98,0.43-4.84,1.35
								c-2.77,1.37-5.28,3.35-7.26,5.72c-1.28,1.53-3.55,1.72-5.07,0.45c-1.52-1.28-1.73-3.55-0.45-5.07
								c2.62-3.13,5.94-5.74,9.59-7.55c2.9-1.44,5.31-2.06,8.11-2.1c3.51,0.03,6.79,1.54,8.77,4.03c2.34,2.95,2.92,6.95,1.74,12.22
								c-1.36,6.13-4.03,12.07-7.71,17.16C1498.33,1088.54,1497.23,1089.06,1496.11,1089.06z"></path>
    </g>
    <g>
      <path fill="#fff" d="M1294.61,1038.06c-4.8,10.24-18.53,37.8-23.33,48.04c-2.89,6.18-5.84,12.6-5.28,19.21
								c0.56,6.61,5.7,13.44,13.59,14.66"></path>
      <path fill="#030047" d="M1279.6,1123.57c-0.18,0-0.37-0.01-0.55-0.04c-10.05-1.54-15.97-10.18-16.62-17.91
								c-0.66-7.7,2.67-14.79,5.6-21.04c2.4-5.13,7.04-14.6,11.69-24.08c4.62-9.43,9.24-18.86,11.64-23.96
								c0.84-1.8,2.97-2.58,4.79-1.73c1.8,0.84,2.57,2.99,1.73,4.79c-2.4,5.13-7.04,14.61-11.69,24.08
								c-4.62,9.43-9.24,18.86-11.64,23.96c-2.55,5.44-5.44,11.6-4.95,17.38c0.41,4.81,4.24,10.43,10.55,11.4
								c1.96,0.3,3.31,2.14,3.01,4.11C1282.88,1122.3,1281.35,1123.57,1279.6,1123.57z"></path>
    </g>
    <g>
      <path fill="#fff" d="M1347.57,1117.5c-2.87,9.43-9.59,17.63-18.28,22.31c-8.69,4.67-19.23,5.76-28.69,2.95"></path>
      <path fill="#030047" d="M1311.3,1147.9c-3.95,0-7.9-0.56-11.71-1.69c-1.91-0.57-3-2.57-2.43-4.48c0.56-1.9,2.55-3,4.47-2.43
								c8.6,2.54,18.06,1.57,25.96-2.67c7.9-4.25,13.93-11.6,16.54-20.18c0.58-1.9,2.59-2.97,4.5-2.4c1.9,0.58,2.97,2.59,2.4,4.5
								c-3.17,10.38-10.46,19.28-20.02,24.43C1324.94,1146.23,1318.12,1147.9,1311.3,1147.9z"></path>
    </g>
  </g>
  <g>
    <path fill="#fff" d="M908.14,1955.64H301.58c-26.5,0-47.98-21.48-47.98-47.98v-314.3c0-26.5,21.48-47.98,47.98-47.98h606.56
									c26.5,0,47.98,21.48,47.98,47.98v314.3C956.12,1934.16,934.64,1955.64,908.14,1955.64z"></path>
    <path fill="#030047" d="M908.14,1959.24H301.59c-28.44,0-51.59-23.14-51.59-51.58v-314.3c0-28.44,23.14-51.58,51.59-51.58
									h606.56c28.44,0,51.58,23.14,51.58,51.58v314.3C959.72,1936.1,936.59,1959.24,908.14,1959.24z M301.59,1548.98
									c-24.47,0-44.38,19.91-44.38,44.38v314.3c0,24.47,19.91,44.38,44.38,44.38h606.56c24.47,0,44.38-19.91,44.38-44.38v-314.3
									c0-24.47-19.91-44.38-44.38-44.38H301.59z"></path>
    <path fill="#ffcc3d" d="M604.75,1825.58c-12.88,0-26.76-4.02-39.94-11.87c-13.65-8.13-25.31-19.12-36.58-29.74
								c-3.95-3.73-7.91-7.45-11.95-11.06c-25.54-22.81-54.57-40.91-86.29-53.79c-27.68-11.24-49.54-14.37-68.74-9.86
								c-20.95,4.92-42.24,23.81-41.61,46.91c0.05,1.99-1.51,3.65-3.5,3.7c-2,0.09-3.64-1.51-3.7-3.5
								c-0.76-27.77,23.73-48.61,47.16-54.11c20.74-4.88,43.97-1.63,73.1,10.2c32.49,13.2,62.22,31.73,88.38,55.09
								c4.08,3.65,8.08,7.42,12.09,11.19c10.99,10.36,22.35,21.06,35.32,28.79c19.64,11.71,40.76,14.11,56.48,6.44
								c11.33-5.53,20.69-16.29,28.6-32.87c2.76-5.8,5.22-11.94,7.59-17.87c3.35-8.39,6.82-17.06,11.31-25.19
								c11.81-21.42,29.7-34.18,47.9-34.18c0.09,0,0.17,0,0.26,0c15.45,0.1,28.33,9.13,36.42,16.69c6.3,5.88,11.75,12.6,17.01,19.09
								c2.75,3.39,5.5,6.79,8.38,10.07c31.52,35.96,78.9,57.45,126.72,57.47c1.99,0,3.6,1.61,3.6,3.6c0,1.99-1.61,3.6-3.6,3.6l0,0
								c-49.87-0.03-99.27-22.43-132.14-59.93c-2.94-3.35-5.74-6.82-8.56-10.28c-5.11-6.3-10.39-12.82-16.33-18.36
								c-7.15-6.68-18.43-14.66-31.55-14.75c-15.7-0.06-31.23,11.28-41.8,30.45c-4.27,7.75-7.66,16.21-10.93,24.39
								c-2.42,6.04-4.91,12.28-7.78,18.29c-8.64,18.11-19.09,29.97-31.94,36.25C621.09,1823.88,613.13,1825.58,604.75,1825.58z"></path>
    <path fill="#030047" d="M332.52,1879.32c-0.42,0-0.85-0.07-1.27-0.23c-1.86-0.7-2.8-2.78-2.1-4.64c6.8-18,11.11-35.76,14.93-52.4
							c6.27-27.27,27.08-48.76,54.31-56.08c26.45-7.12,53.23,0.4,71.62,20.1c1.05,1.12,2.06,2.27,3.02,3.45
							c1.64,2.01,3.22,4.1,4.81,6.18c5.57,7.33,10.83,14.26,18.35,17.93c12.7,6.2,27.78,0.87,37.66-6.18
							c8.71-6.22,15.61-14.35,22.92-22.96c2.3-2.7,4.59-5.4,6.94-8.04c8.93-10.01,21.28-21.96,37.61-25.47
							c13.44-2.89,28.71,0.21,45.4,9.21c6.09,3.29,11.96,7.05,17.63,10.7c6.66,4.28,13.55,8.7,20.66,12.23
							c27.43,13.62,60.67,14.69,88.92,2.91c28.26-11.79,50.86-36.19,60.47-65.26c0.62-1.89,2.66-2.91,4.55-2.29
							c1.89,0.62,2.91,2.66,2.29,4.55c-10.26,31.02-34.38,57.06-64.53,69.64c-30.17,12.59-65.65,11.42-94.9-3.1
							c-7.47-3.71-14.53-8.24-21.35-12.62c-5.56-3.57-11.31-7.27-17.16-10.42c-15.14-8.17-28.77-11.03-40.45-8.51
							c-14.3,3.08-25.55,14.03-33.76,23.22c-2.31,2.59-4.57,5.25-6.82,7.9c-7.27,8.56-14.79,17.41-24.22,24.15
							c-11.57,8.26-29.46,14.39-45.01,6.8c-9.05-4.42-15.09-12.37-20.92-20.05c-1.54-2.02-3.07-4.04-4.65-5.99
							c-0.86-1.05-1.75-2.08-2.7-3.08c-16.54-17.72-40.65-24.47-64.49-18.06c-24.65,6.63-43.49,26.07-49.16,50.73
							c-3.88,16.89-8.25,34.91-15.21,53.33C335.34,1878.43,333.97,1879.32,332.52,1879.32z"></path>
    <circle cx="837.82" cy="1721.91" r="22.66" fill="#030047"></circle>
    <circle cx="909.18" cy="1809.74" r="22.66" fill="#ffcc3d"></circle>
    <circle cx="725.88" cy="1711.21" r="22.66" fill="#ffcc3d"></circle>
    <circle cx="359.99" cy="1708.46" r="22.66" fill="#ffcc3d"></circle>
    <circle cx="627.53" cy="1755.37" r="22.66" fill="#030047"></circle>
    <g>
      <circle cx="487.41" cy="1809.74" r="22.66" fill="#030047"></circle>
    </g>
    <g>
      <circle cx="337.33" cy="1872.53" r="22.66" fill="#030047"></circle>
    </g>
  </g>
  <g>
    <rect width="130.34" height="141.05" x="1624.15" y="1107.7" fill="#605efd"></rect>
  </g>
  <g>
    <rect width="130.34" height="241.19" x="1818.48" y="1007.56" fill="#605efd"></rect>
  </g>
  <g>
    <rect width="130.34" height="421.38" x="2012.81" y="827.37" fill="#605efd"></rect>
  </g>
  <g>
    <rect width="12.26" height="0" x="1703.39" y="802.05" fill="#fff"></rect>
  </g>
  <g>
    <path fill="#605efd" d="M608.78,1322.01l20.18-61.45l-32.02-10.52c2.16-19.53,0.52-38.93-4.36-57.31l30.1-15.24l-29.19-57.73
							l-30.1,15.24c-11.9-14.87-26.56-27.65-43.57-37.49l10.52-32.02l-61.48-20.19l-10.52,32.02c-19.53-2.16-38.92-0.55-57.31,4.36
							l-15.2-30.12l-57.73,29.18l15.2,30.12c-14.83,11.91-27.65,26.57-37.49,43.57l-32.02-10.52l-20.18,61.45l32.02,10.52
							c-2.17,19.56-0.53,38.96,4.36,57.31l-30.1,15.24l29.18,57.73l30.1-15.24c11.9,14.86,26.56,27.65,43.57,37.49l-10.53,32.05
							l61.48,20.19l10.53-32.05c19.53,2.16,38.92,0.55,57.31-4.36l15.2,30.12l57.73-29.19l-15.2-30.12
							c14.82-11.88,27.64-26.53,37.49-43.57L608.78,1322.01z M422.97,1309.1c-47.01-11.42-72.51-61.83-53.86-106.5
							c14.67-35.13,53.49-54.76,90.48-45.74c47.03,11.46,72.5,61.88,53.83,106.51C498.74,1298.47,459.95,1318.08,422.97,1309.1z"></path>
  </g>
  <g>
    <path fill="#ffcc3d" d="M2028.1,1559.85l-21.79,7.98c-10.22,3.69-21.49-1.53-25.21-11.69l-7.99-21.79
				c-3.72-10.16,1.51-21.43,11.66-25.15l21.82-8.05c10.16-3.72,21.43,1.5,25.21,11.69l7.96,21.85
				C2043.49,1544.86,2038.26,1556.13,2028.1,1559.85z"></path>
  </g>
  <g>
    <path fill="#ffcc3d" d="M387.8,866.08l-29.09,10.66c-13.64,4.93-28.68-2.05-33.65-15.6l-10.66-29.09
				c-4.97-13.56,2.01-28.61,15.57-33.57l29.13-10.74c13.56-4.97,28.6,2.01,33.65,15.6l10.62,29.17
				C408.34,846.07,401.36,861.11,387.8,866.08z"></path>
  </g>
  <g>
    <path fill="#ffcc3d" d="M1066.96,655.41l-16.69,6.11c-7.83,2.83-16.46-1.17-19.31-8.95l-6.12-16.69
				c-2.85-7.78,1.15-16.41,8.93-19.27l16.71-6.16c7.78-2.85,16.41,1.15,19.31,8.95l6.09,16.74
				C1078.74,643.93,1074.74,652.56,1066.96,655.41z"></path>
  </g>
  <g>
    <path fill="#ffcc3d" d="M707.41,491.12l-16.69,6.11c-7.83,2.83-16.46-1.17-19.31-8.95l-6.12-16.69c-2.85-7.78,1.15-16.41,8.93-19.27
				l16.71-6.16c7.78-2.85,16.41,1.15,19.31,8.95l6.09,16.74C719.19,479.63,715.19,488.26,707.41,491.12z"></path>
  </g>
  <g opacity=".4">
    <path fill="#fff" d="M1145.55,1714.57c1.58-0.19,3.17-0.24,4.8-0.24c34.14,0,61.85,27.71,61.85,61.85
			c0,34.14-27.71,61.85-61.85,61.85c-4.8,0-9.46-0.53-13.93-1.63"></path>
  </g>
  <g opacity=".4">
    <circle cx="1562.39" cy="1395.88" r="23.3" fill="#fff"></circle>
  </g>
  <g opacity=".4">
    <circle cx="1604.18" cy="1485.84" r="19.98" fill="#fff"></circle>
  </g>
  <g opacity=".4">
    <circle cx="1365.4" cy="1569.02" r="33.67" fill="#fff"></circle>
  </g>
  <g opacity=".4">
    <circle cx="1524.86" cy="1676.82" r="37.53" fill="#fff"></circle>
  </g>
  <g opacity=".4">
    <circle cx="1365.4" cy="1734.86" r="20.51" fill="#fff"></circle>
  </g>
  <g opacity=".4">
    <circle cx="1252.07" cy="1432.8" r="23.63" fill="#fff"></circle>
  </g>
  <g opacity=".4">
    <circle cx="1096.05" cy="1479.95" r="19.62" fill="#fff"></circle>
  </g>
  <g opacity=".4">
    <circle cx="1113.64" cy="1372.59" r="14.71" fill="#fff"></circle>
  </g>
  <g opacity=".4">
    <circle cx="1385.4" cy="1594.88" r="25.69" fill="#fff"></circle>
  </g>
  <g opacity=".4">
    <circle cx="1407.87" cy="1432.8" r="19.24" fill="#fff"></circle>
  </g>
</svg>
