<svg xmlns="http://www.w3.org/2000/svg" xml:space="preserve" id="uploading" x="0" y="0" enable-background="new 0 0 2500 2500" version="1.1" viewBox="0 0 2500 2500">
  <path fill="#030047" d="M2214.23,2250H264.31c-2.18,0-3.95-1.77-3.95-3.95s1.77-3.95,3.95-3.95h1949.92c2.18,0,3.95,1.77,3.95,3.95
			S2216.41,2250,2214.23,2250z"></path>
  <path fill="#fff" d="M791.52 2184.77c-1.04 0-2.08-.09-3.08-.28-6.28-1.18-11.37-5.2-15.46-8.42-1.71-1.35-2.01-3.84-.65-5.55 1.35-1.71 3.84-2.01 5.55-.65 3.58 2.83 7.65 6.04 12.01 6.86 3.3.62 7.6-.76 8.53-3.7.42-1.32.28-3.09.12-4.97-.24-2.96-.5-6.32 1.18-9.59 2.39-4.63 7.98-7.14 14.95-6.95 1.02.03 2.06.1 3.1.17 3.04.2 5.9.39 8.15-.53 1.6-.66 2.93-2.1 3.66-3.95.73-1.86.74-3.82.03-5.39-.91-1.98-.04-4.33 1.95-5.24 2-.91 4.33-.04 5.24 1.95 1.61 3.51 1.66 7.73.14 11.58-1.52 3.85-4.44 6.89-8.01 8.36-3.95 1.63-8.04 1.35-11.68 1.11-.94-.06-1.87-.12-2.8-.15-3.01-.09-6.61.57-7.7 2.67-.65 1.26-.5 3.15-.32 5.33.2 2.43.42 5.19-.46 7.98C804 2181.63 797.59 2184.77 791.52 2184.77zM987.61 2121.77c-2.3 0-4.54-.52-6.53-1.55-3.79-1.97-6.23-5.28-8.39-8.2-.56-.76-1.11-1.51-1.69-2.24-1.87-2.35-4.67-4.68-7-4.15-1.39.32-2.73 1.65-4.29 3.2-1.73 1.72-3.69 3.67-6.39 4.8-7.09 2.97-14.85-1.49-18.27-7.51-3.15-5.55-3.37-12.03-3.55-17.24-.07-2.18 1.64-4.01 3.82-4.08.05 0 .09 0 .13 0 2.13 0 3.88 1.68 3.95 3.82.15 4.57.33 9.75 2.52 13.6 1.65 2.91 5.49 5.32 8.33 4.12 1.28-.53 2.54-1.79 3.88-3.11 2.1-2.09 4.49-4.47 8.09-5.29 5.05-1.17 10.51 1.36 14.96 6.93.64.8 1.26 1.64 1.87 2.47 1.8 2.44 3.5 4.75 5.67 5.88 1.54.8 3.5.88 5.38.24 1.89-.64 3.4-1.9 4.13-3.46.93-1.97 3.27-2.83 5.26-1.9 1.98.93 2.82 3.28 1.89 5.26-1.64 3.5-4.83 6.26-8.75 7.59C990.99 2121.5 989.28 2121.77 987.61 2121.77zM1092.16 2187.12c-.82 0-1.65-.25-2.35-.78-3.1-2.3-5.18-5.98-5.7-10.08-.52-4.1.57-8.18 2.99-11.18 2.68-3.33 6.41-5.06 9.7-6.59.85-.4 1.7-.79 2.53-1.21 2.68-1.37 5.52-3.68 5.46-6.04-.04-1.42-1.08-3-2.28-4.83-1.34-2.04-2.87-4.34-3.44-7.22-1.5-7.53 4.41-14.25 10.99-16.41 6.07-2 12.46-.92 17.6-.06 2.15.36 3.61 2.4 3.24 4.55-.36 2.15-2.42 3.6-4.55 3.24-4.5-.76-9.6-1.61-13.82-.23-3.19 1.04-6.3 4.32-5.7 7.35.27 1.36 1.25 2.84 2.29 4.41 1.64 2.48 3.49 5.29 3.59 8.97.13 5.2-3.42 10.04-9.76 13.29-.91.47-1.85.91-2.79 1.35-2.75 1.28-5.35 2.49-6.88 4.39-1.08 1.34-1.55 3.24-1.3 5.23s1.19 3.7 2.57 4.73c1.76 1.3 2.12 3.78.81 5.53C1094.56 2186.57 1093.37 2187.12 1092.16 2187.12zM931.8 2226.93c-.82 0-1.65-.25-2.35-.78-3.1-2.3-5.18-5.98-5.7-10.08-.52-4.1.57-8.18 2.99-11.18 2.69-3.33 6.42-5.07 9.71-6.6.85-.4 1.7-.79 2.52-1.21 2.68-1.37 5.52-3.68 5.46-6.04-.04-1.42-1.08-3-2.28-4.83-1.34-2.04-2.86-4.34-3.43-7.22-1.51-7.52 4.4-14.25 10.98-16.41 6.06-1.99 12.46-.92 17.6-.06 2.15.36 3.61 2.4 3.24 4.55-.36 2.15-2.42 3.61-4.55 3.24-4.5-.76-9.61-1.61-13.82-.23-3.19 1.04-6.3 4.32-5.7 7.35.27 1.36 1.25 2.84 2.29 4.42 1.63 2.48 3.48 5.29 3.58 8.97.13 5.2-3.42 10.04-9.76 13.29-.91.47-1.85.9-2.79 1.34-2.75 1.28-5.36 2.49-6.9 4.4-1.08 1.34-1.55 3.24-1.3 5.22.25 1.98 1.19 3.7 2.57 4.73 1.76 1.3 2.12 3.78.81 5.53C934.2 2226.38 933.01 2226.93 931.8 2226.93z" opacity=".4"></path>
  <path fill="#605efd" d="M695.12,1804.24l0.67-60.56l-31.56-0.35c-3.58-18.04-10.52-34.9-20.07-49.95l22.57-22.11l-42.35-43.31
								l-22.57,22.11c-14.82-9.91-31.53-17.19-49.49-21.18l0.35-31.56l-60.59-0.67l-0.35,31.56c-18.04,3.58-34.9,10.49-49.95,20.07
								l-22.08-22.6l-43.31,42.35l22.08,22.6c-9.88,14.82-17.19,31.53-21.18,49.49l-31.56-0.35l-0.67,60.56l31.56,0.35
								c3.58,18.08,10.52,34.93,20.07,49.95l-22.57,22.11l42.35,43.31l22.57-22.11c14.82,9.91,31.53,17.19,49.49,21.18l-0.35,31.59
								l60.59,0.67l0.35-31.59c18.04-3.58,34.9-10.49,49.95-20.07l22.08,22.6l43.31-42.35l-22.08-22.6
								c9.88-14.79,17.19-31.5,21.18-49.49L695.12,1804.24z M525.56,1845.16c-45.2,3.07-82.2-34.74-78.15-79.89
								c3.19-35.51,32.31-63.99,67.88-66.38c45.23-3.04,82.2,34.79,78.13,79.91C590.22,1814.29,561.12,1842.75,525.56,1845.16z"></path>
  <path fill="#030047" d="M1019.37 2247.76c-131.81 0-242.2-12.14-328.35-36.14-113.76-31.69-185.57-84.32-213.44-156.44-81.46-210.82 87.16-358.21 222.65-476.64 39.42-34.45 76.64-66.99 101.5-96.5 92-109.26 23.47-435.84 22.77-439.12-.46-2.13.91-4.24 3.04-4.69 2.15-.45 4.24.9 4.69 3.04 2.9 13.57 70.04 333.66-24.46 445.87-25.24 29.97-62.69 62.71-102.34 97.36-133.64 116.8-299.95 262.17-220.49 467.83 61.22 158.42 335.04 189.37 553.71 187.45 238.14-2.1 464.61-42.65 466.87-43.06 2.13-.38 4.2 1.03 4.6 3.18.39 2.15-1.04 4.2-3.19 4.59-2.26.41-229.31 41.07-468.12 43.19C1032.28 2247.73 1025.8 2247.76 1019.37 2247.76zM1917.88 2172.72c-154.03.01-307.53-31.86-317.94-34.06-2.14-.45-3.5-2.55-3.05-4.69.45-2.14 2.56-3.5 4.68-3.05 4.15.88 417.49 86.67 571.76-20.7 31.87-22.18 50.68-51.45 55.92-86.99 22.96-155.77-119.42-249.34-270.16-348.41-123.04-80.86-250.27-164.48-289.45-287.08-33.44-104.67-45.29-360.07-45.41-362.64-.1-2.18 1.59-4.03 3.77-4.13 2.08-.1 4.03 1.59 4.13 3.77.12 2.56 11.92 256.92 45.05 360.59 38.32 119.94 164.37 202.77 286.26 282.88 152.9 100.49 297.33 195.41 273.64 356.17-5.57 37.78-25.5 68.85-59.24 92.33C2116.35 2159.51 2016.99 2172.71 1917.88 2172.72z"></path>
  <path fill="#030047" d="M1929.07,1363.44c0,16.32-6.62,31.13-17.36,41.87c-10.74,10.69-25.5,17.32-41.87,17.32h-332.81
							c-32.69,0-59.19-26.5-59.19-59.19c0-16.32,6.62-31.13,17.32-41.87c10.74-10.69,25.55-17.32,41.87-17.32h332.81
							C1902.53,1304.25,1929.07,1330.75,1929.07,1363.44z"></path>
  <path fill="#fff" d="M1537.03,1394.25c-16.99,0-30.8-13.82-30.8-30.8c0-8.23,3.21-15.98,9.04-21.84
							c5.78-5.75,13.53-8.96,21.76-8.96h240.87c17.01,0,30.85,13.82,30.85,30.8c0,8.22-3.21,15.97-9.05,21.8
							c-5.82,5.79-13.58,9.01-21.8,9.01H1537.03z"></path>
  <polygon fill="#ffcc3d" points="1679.32 1082.45 1577.06 1082.45 1560.91 967.4 1695.47 967.4"></polygon>
  <polygon fill="#ffcc3d" points="882.94 1082.45 780.68 1082.45 764.54 967.4 899.09 967.4"></polygon>
  <path fill="#605efd" d="M1783.39,1004.41c81.41,0,132.01-38.77,175.41-107.64c40.8-64.75,54.45-138.3,25.24-192.71
						c-41.09-76.65-134.78-95.76-237.65-66.57c0.45-4.85,0.68-9.71,0.68-14.71c0-84.08-66.64-152.23-148.82-152.23
						c-30.4,0-58.6,9.33-82.11,25.32C1503.03,358.03,1381.27,250,1233.05,250c-152.23,0-276.57,113.95-283.92,257.08
						c-19.56-11.29-42.23-17.74-66.41-17.74c-62.7,0-115.23,43.21-129.56,101.44c-102.19-7.96-196.58,41.55-230.02,129.41
						c-16.01,42.03-13.99,86.84,1.45,129.61c33.85,93.79,125.05,154.6,224.76,154.6H1783.39z"></path>
  <path fill="#fff" d="M1972.87,1793.64l152.38-189.43c7.68-9.42,8.42-23.39,0.57-32.64c-10.52-12.43-28.96-11.81-38.74,0.23
										c8.7-10.79,26.93-33.11,6.31-47.36c-11.45-7.9-26.53-7.14-35.29,3.53l15.98-19.54c10.46-12.93,6.05-33.06-11.11-39.54
										c-9.94-3.82-21.13-0.31-27.74,7.87l-0.1,0.13l-13.57,16.76c7.92-13.22,1.92-32.01-14.91-37.29
										c-9.53-2.98-19.98,0.57-26.29,8.36l-0.06,0.03l-95.45,118.29l-17.74-37.52c-8.46-17.92-30.49-24.52-47.43-14.37
										c-6.3,3.86-11.07,9.54-13.68,16.02c-3.05,7.41-3.44,15.85-0.6,23.84l14.24,39.86c13.38,34.05-9.8,67.88-9.8,67.88"></path>
  <path fill="#030047" d="M1972.87,1797.59c-0.87,0-1.74-0.29-2.48-0.87c-1.7-1.37-1.97-3.86-0.6-5.56l152.38-189.43
										c6.73-8.25,6.99-20.11,0.63-27.6c-4.25-5.01-10.04-7.72-16.48-7.67c-6.29,0.06-12.19,2.92-16.18,7.83
										c-1.38,1.7-3.86,1.95-5.55,0.58c-1.69-1.37-1.96-3.85-0.59-5.55c0.01,0,0.01-0.01,0.01-0.01l0,0c0,0,0,0,0,0
										c5.83-7.23,16.26-20.19,14.73-30.7c-0.61-4.23-3.1-7.8-7.6-10.91c-10.23-7.07-22.86-5.9-29.99,2.78
										c-1.38,1.69-3.88,1.92-5.56,0.55c-1.69-1.38-1.94-3.87-0.55-5.56l15.99-19.54c4.26-5.27,5.75-12.34,3.98-18.9
										c-1.8-6.63-6.7-11.89-13.43-14.44c-8.2-3.14-17.52-0.46-23.27,6.65l-13.66,16.89c-1.3,1.62-3.63,1.94-5.34,0.75
										c-1.7-1.19-2.19-3.49-1.13-5.27c3.23-5.39,3.78-12.25,1.47-18.34c-2.42-6.37-7.46-11.04-14.17-13.15
										c-7.79-2.43-16.63,0.42-22.04,7.08c-0.1,0.12-0.21,0.24-0.32,0.35l-95.19,117.97c-0.85,1.06-2.17,1.6-3.55,1.44
										c-1.35-0.16-2.52-1-3.1-2.23l-17.75-37.52c-3.6-7.62-10.01-13.16-18.06-15.6c-7.95-2.41-16.62-1.35-23.76,2.93
										c-5.43,3.33-9.72,8.35-12.05,14.11c-2.78,6.74-2.96,14.2-0.54,21.04l14.23,39.85c13.95,35.48-9.27,69.99-10.27,71.44
										c-1.22,1.8-3.7,2.25-5.49,1.03c-1.8-1.23-2.26-3.69-1.03-5.49c0.22-0.32,21.82-32.57,9.39-64.2l-14.28-39.98
										c-3.08-8.68-2.84-18.15,0.67-26.67c2.95-7.3,8.38-13.66,15.27-17.88c9.08-5.45,20.06-6.8,30.16-3.74
										c10.06,3.06,18.41,10.27,22.9,19.79l15.05,31.82l91.5-113.38c0.11-0.13,0.23-0.26,0.34-0.38
										c7.45-8.92,19.55-12.66,30.27-9.31c8.94,2.81,15.94,9.33,19.19,17.88c0.98,2.56,1.58,5.23,1.81,7.91l3.22-3.98
										c8.01-9.92,20.97-13.56,32.33-9.2c9.12,3.44,15.78,10.65,18.25,19.76c2.44,9,0.39,18.7-5.48,25.95l-3.62,4.42
										c7.28-0.86,15.14,1.05,22.1,5.85c6.32,4.37,10,9.85,10.93,16.28c1.08,7.44-1.67,14.94-5.5,21.6
										c1.69-0.32,3.42-0.5,5.17-0.52c0.1,0,0.2,0,0.3,0c8.54,0,16.65,3.8,22.29,10.46c8.79,10.34,8.56,26.55-0.52,37.69
										l-152.36,189.41C1975.17,1797.09,1974.02,1797.59,1972.87,1797.59z"></path>
  <line x1="2058.18" x2="2019.22" y1="1527.96" y2="1575.79" fill="#fff"></line>
  <path fill="#030047" d="M2019.22,1579.74c-0.88,0-1.76-0.29-2.5-0.89c-1.69-1.38-1.95-3.87-0.57-5.56l38.95-47.83
											c1.37-1.69,3.86-1.94,5.56-0.57c1.69,1.38,1.95,3.87,0.57,5.56l-38.95,47.83
											C2021.51,1579.24,2020.37,1579.74,2019.22,1579.74z"></path>
  <line x1="2021.6" x2="1980.44" y1="1493.66" y2="1544.19" fill="#fff"></line>
  <path fill="#030047" d="M1980.44,1548.15c-0.88,0-1.76-0.29-2.5-0.89c-1.69-1.38-1.95-3.87-0.57-5.56l41.16-50.54
											c1.37-1.69,3.86-1.94,5.56-0.57c1.69,1.38,1.95,3.87,0.57,5.56l-41.16,50.54
											C1982.72,1547.65,1981.58,1548.15,1980.44,1548.15z"></path>
  <g>
    <line x1="2096.94" x2="2058.05" y1="1559.66" y2="1607.41" fill="#fff"></line>
    <path fill="#030047" d="M2058.05,1611.36c-0.88,0-1.77-0.29-2.5-0.89c-1.69-1.38-1.95-3.87-0.57-5.56l38.89-47.74
											c1.37-1.7,3.88-1.94,5.56-0.57c1.69,1.38,1.95,3.87,0.57,5.56l-38.89,47.74
											C2060.34,1610.87,2059.2,1611.36,2058.05,1611.36z"></path>
  </g>
  <g>
    <path fill="#fff" d="M1884.9,1583.02c0,0,35.07,19.4,33.09,57.33"></path>
    <path fill="#030047" d="M1918,1644.31c-0.07,0-0.14,0-0.21-0.01c-2.18-0.11-3.85-1.97-3.74-4.15
											c1.83-35.06-30.73-53.49-31.06-53.67c-1.91-1.06-2.6-3.46-1.54-5.37c1.05-1.91,3.44-2.61,5.37-1.55
											c1.52,0.84,37.2,21.05,35.13,61C1921.83,1642.67,1920.08,1644.31,1918,1644.31z"></path>
  </g>
  <g>
    <path fill="#ffcc3d" d="M1311,2026.77l192.84,185.34c78.27,61.4,193.07,36.61,239.02-51.62l251.67-363.42l-210.77-159.3
									l-198.73,291.95l-161.3-180.56c-14.84-13.85-45.11-31.26-64.56-37.1l-94.5-12.91l-24.18,145.83
									C1224.82,1917.4,1254.26,1979.09,1311,2026.77z"></path>
  </g>
  <g>
    <path fill="#030047" d="M1742.85,2164.45c-0.78,0-1.56-0.23-2.24-0.7c-1.8-1.24-2.24-3.71-1-5.5l249.5-360.3l-204.43-154.51
									l-196.39,288.52c-0.68,1-1.8,1.64-3.01,1.72c-1.13,0.09-2.4-0.4-3.21-1.31l-161.29-180.56c-1.45-1.63-1.31-4.13,0.31-5.58
									c1.63-1.46,4.12-1.31,5.58,0.31l157.92,176.79l195.88-287.77c0.61-0.89,1.56-1.5,2.62-1.68c1.09-0.19,2.17,0.1,3.03,0.75
									l210.77,159.3c1.69,1.28,2.07,3.66,0.86,5.4l-251.67,363.42C1745.34,2163.85,1744.11,2164.45,1742.85,2164.45z"></path>
  </g>
  <g>
    <path fill="#ffcc3d" d="M804.76,1812.72c0-55.88,41.43-103.06,96.83-110.34c73.24-9.62,122.53-21.28,165.3-23.05
																c75.42-3.13,299.78,36.22,299.78,36.22l24.98,528.28h-586.9V1812.72z"></path>
    <path fill="#030047" d="M804.75,2247.78c-2.18,0-3.95-1.77-3.95-3.95v-431.11c0-2.18,1.77-3.95,3.95-3.95
																s3.95,1.77,3.95,3.95v431.11C808.71,2246.01,806.94,2247.78,804.75,2247.78z"></path>
    <g>
      <path fill="#030047" d="M1390.76,2247.78c-2.1,0-3.85-1.66-3.94-3.78l-16.72-375.23c-0.1-2.18,1.59-4.03,3.77-4.13
														c2.06-0.09,4.03,1.59,4.12,3.77l16.72,375.23c0.1,2.18-1.59,4.03-3.77,4.12
														C1390.88,2247.78,1390.82,2247.78,1390.76,2247.78z"></path>
    </g>
  </g>
  <g>
    <path fill="#fff" d="M1024.12,1730.25l-39.37-40.07l21.13-205.6l168.4,35.09l6.48,169.58l-12.91,19.07
											C1139.96,1762.73,1066.97,1773.87,1024.12,1730.25z"></path>
    <path fill="#030047" d="M1087.7,1761.06c-24.9,0-48.51-9.84-66.4-28.04l0,0l-39.37-40.07c-0.82-0.84-1.23-2-1.11-3.17
											l21.14-205.6c0.11-1.11,0.69-2.13,1.6-2.79c0.9-0.66,2.04-0.91,3.14-0.68l168.4,35.09c1.78,0.37,3.07,1.9,3.14,3.72
											l6.48,169.58c0.04,0.84-0.2,1.67-0.67,2.37l-12.92,19.07c-13.64,26.66-38.85,44.83-68.93,49.42
											C1097.34,1760.69,1092.49,1761.06,1087.7,1761.06z M1026.94,1727.48c19.53,19.88,46.51,28.86,74.06,24.66
											c27.54-4.2,50.62-20.83,63.33-45.62l12.43-18.41l-6.31-165.2l-161.08-33.57l-20.5,199.39L1026.94,1727.48z"></path>
    <path fill="#fff" d="M1006.01,1502.75c-26.89-92.18,5.71-188,5.71-188l213.5-42.83c3.46,4.51,107.65,80.28,87.75,227.15
												c-16.31,120.36-120.1,160.47-246,92.24"></path>
    <path fill="#030047" d="M1181.69,1628.5c-35.56,0-75.3-11.33-116.59-33.71c-1.92-1.04-2.63-3.44-1.59-5.36
												c1.04-1.92,3.44-2.64,5.36-1.59c65.6,35.55,126.74,42.43,172.2,19.36c37.43-19,60.95-56.57,68-108.65
												c11.54-85.14-18.09-163.58-83.42-220.87c-0.68-0.59-1.22-1.07-1.67-1.47l-209.2,41.96c-4.5,14.61-29,101.11-4.97,183.47
												c0.61,2.09-0.59,4.29-2.69,4.9c-2.11,0.62-4.29-0.59-4.9-2.69c-26.93-92.31,5.43-189.41,5.76-190.37
												c0.45-1.33,1.59-2.33,2.96-2.6l213.5-42.83c1.46-0.29,3.01,0.27,3.92,1.47c0.28,0.29,1.17,1.06,2.49,2.21
												c67.39,59.09,97.95,140.02,86.05,227.87c-7.42,54.77-32.41,94.41-72.26,114.64
												C1225.88,1623.77,1204.66,1628.5,1181.69,1628.5z"></path>
    <path fill="#030047" d="M1161.11,1215.93c0,0-50.75-43.11-86.54-30.91c-35.79,12.2-21.62,74.73-21.62,74.73
											s-45.99-24.57-89.33,22.78c-43.34,47.35,18.91,154.35,18.91,154.35l62.67-15.96c0,0-1.18,10.54,17.64,1.71
											c18.83-8.83,25.43-63.06,46.15-69.3c0,0,140.31,93.14,243.16-2.8c102.85-95.94,6.46-180.42-104.89-191.51
											C1135.92,1147.93,1161.11,1215.93,1161.11,1215.93z"></path>
    <path fill="#fff" d="M1185.55,1431.59c-10.53-4.62-23.32-1.89-32.45,6.93"></path>
    <path fill="#030047" d="M1153.1 1442.47c-1.03 0-2.07-.4-2.84-1.21-1.52-1.57-1.48-4.07.09-5.59 10.31-9.97 24.76-12.98 36.79-7.7 2 .88 2.91 3.21 2.03 5.21-.87 2-3.2 2.9-5.21 2.03-9.08-3.98-20.12-1.57-28.11 6.15C1155.08 1442.1 1154.09 1442.47 1153.1 1442.47zM1255.27 1457.39c.47 8.85 5.71 15.82 11.71 15.5 5.95-.32 10.42-7.82 9.9-16.72-.51-8.91-5.75-15.87-11.71-15.55C1259.17 1440.99 1254.76 1448.49 1255.27 1457.39zM1164.26 1464c.51 8.91 5.76 15.82 11.76 15.5 5.95-.32 10.37-7.82 9.9-16.72-.51-8.91-5.75-15.87-11.76-15.5C1168.21 1447.6 1163.8 1455.1 1164.26 1464z"></path>
    <path fill="#fff" d="M1276.53,1424.97c-10.53-4.62-23.32-1.89-32.45,6.93"></path>
    <path fill="#030047" d="M1244.08,1435.85c-1.03,0-2.07-0.4-2.84-1.21c-1.52-1.57-1.48-4.07,0.09-5.59
												c10.32-9.96,24.77-12.98,36.79-7.7c2,0.88,2.91,3.21,2.03,5.21c-0.88,2-3.21,2.9-5.21,2.03
												c-9.08-3.99-20.11-1.57-28.11,6.15C1246.05,1435.48,1245.07,1435.85,1244.08,1435.85z"></path>
    <g>
      <path fill="#fff" d="M1047.51,1422.75c0,0-42.69-55.81-71.58-49.73c-28.89,6.08-31.44,104.69,0.1,118.17
												c31.54,13.48,59.64,4.03,59.64,4.03"></path>
      <path fill="#030047" d="M1011.87,1502.42c-10.59,0-23.65-1.72-37.39-7.6c-20.24-8.65-27.61-45.87-24.42-78.16
												c2.67-27.01,12.03-44.77,25.06-47.51c31.04-6.51,73.73,48.84,75.53,51.2c1.33,1.73,0.99,4.21-0.74,5.54
												c-1.75,1.33-4.22,0.99-5.54-0.74c-11.45-14.97-45.87-52.82-67.63-48.27c-9.2,1.94-16.58,17.85-18.82,40.55
												c-2.87,29.11,3.7,63.29,19.66,70.12c29.8,12.74,56.56,4,56.82,3.91c2.07-0.7,4.31,0.42,5.01,2.49
												c0.69,2.07-0.42,4.31-2.49,5.01C1036.23,1499.2,1026.35,1502.42,1011.87,1502.42z"></path>
    </g>
    <g>
      <path fill="#030047" d="M986.15,1449.83c-1.69,0-3.26-1.09-3.78-2.8c-2.09-6.83-2.78-14.18-2-21.28
											c0.67-6.07,2.74-10.13,6.31-12.42c3.01-1.93,7.05-2.34,10.8-1.1c2.75,0.91,5.34,2.61,7.92,5.21
											c3.25,3.28,5.86,7.29,7.52,11.61c0.79,2.04-0.23,4.32-2.26,5.11c-2.03,0.78-4.33-0.23-5.11-2.26
											c-1.28-3.31-3.27-6.38-5.76-8.89c-1.68-1.7-3.25-2.77-4.79-3.28c-1.5-0.5-3.05-0.4-4.05,0.24
											c-1.42,0.91-2.34,3.15-2.73,6.64c-0.67,6.03-0.08,12.29,1.7,18.09c0.64,2.09-0.53,4.3-2.62,4.94
											C986.93,1449.77,986.54,1449.83,986.15,1449.83z"></path>
    </g>
    <g>
      <path fill="#fff" d="M1225.31,1474.11c1.41,12.8,2.81,25.61,4.22,38.41c0.85,7.72,1.66,15.73-1.38,22.65
											c-3.03,6.92-11.09,12.4-20.04,10.8"></path>
      <path fill="#030047" d="M1211.31,1550.21c-1.27,0-2.56-0.11-3.89-0.35c-2.15-0.38-3.58-2.43-3.2-4.58
											c0.39-2.15,2.42-3.58,4.59-3.2c7.25,1.29,13.49-3.42,15.73-8.5c2.66-6.07,1.81-13.8,1.07-20.63l-4.22-38.41
											c-0.24-2.17,1.33-4.12,3.49-4.36c2.25-0.23,4.12,1.33,4.36,3.5l4.22,38.41c0.85,7.81,1.82,16.66-1.69,24.67
											C1228.65,1543.86,1220.88,1550.21,1211.31,1550.21z"></path>
    </g>
    <g>
      <path fill="#030047" d="M1163.38,1569.95c-0.15,0-0.3-0.01-0.46-0.03c-8.74-1.01-17.15-5.33-23.06-11.85
										c-5.91-6.52-9.38-15.31-9.53-24.11c-0.04-2.18,1.7-3.98,3.89-4.02c0.03,0,0.05,0,0.07,0c2.16,0,3.92,1.73,3.95,3.89
										c0.11,6.91,2.84,13.81,7.48,18.93c4.64,5.12,11.24,8.51,18.11,9.3c2.17,0.25,3.73,2.21,3.47,4.38
										C1167.07,1568.47,1165.36,1569.95,1163.38,1569.95z"></path>
    </g>
  </g>
  <g>
    <path fill="#fff" d="M1133.85,2022.8c0,0,177.48-47.05,215.71-39.14c38.23,7.91,101.83,46.8,103.15,69.86
								c1.32,23.07-16.81,27.35-25.7,28.67c0,0,26.69,27.02-4.28,42.18c0,0,10.88,23.07-19.77,26.36c0,0-6.92,19.77-27.68,16.81
								c-20.76-2.97-34.65-14.85-34.65-14.85s-22.36,17.15-51.03,16.82c-40.67-0.47-141.38,2.31-141.38,2.31L1133.85,2022.8z"></path>
    <path fill="#030047" d="M1148.21,2175.78c-2.03,0-3.74-1.54-3.93-3.57l-14.36-149.03c-0.19-1.93,1.05-3.7,2.92-4.2
								c7.29-1.93,178.79-47.21,217.53-39.19c37.94,7.85,104.78,47.14,106.29,73.51c0.66,11.68-2.92,26.04-22.47,31.43
								c3.9,5.46,8.74,14.45,7.15,23.82c-1.21,7.16-5.85,13.11-13.77,17.72c1.08,3.94,1.98,10.52-1.41,16.55
								c-3.46,6.17-10.33,10.04-20.43,11.54c-3.77,8.05-13.74,19.55-31.02,17.09c-16.74-2.39-29.14-10.2-34.19-13.85
								c-6.8,4.55-26.81,16.08-50.98,15.87c-40.14-0.47-140.21,2.28-141.22,2.31C1148.28,2175.78,1148.24,2175.78,1148.21,2175.78z
								 M1138.11,2025.77l13.68,142.01c18.54-0.49,101.94-2.63,137.84-2.21c26.93,0.28,48.37-15.84,48.58-16.01
								c1.47-1.13,3.56-1.08,4.97,0.13c0.13,0.11,13.36,11.19,32.64,13.94c17.32,2.47,23.15-13.52,23.39-14.2
								c0.5-1.44,1.79-2.46,3.31-2.62c8.7-0.94,14.33-3.58,16.74-7.86c3.15-5.62-0.08-12.82-0.12-12.89
								c-0.92-1.95-0.1-4.29,1.84-5.24c7.41-3.63,11.63-8.19,12.56-13.58c1.84-10.73-9.24-22.17-9.35-22.28
								c-1.04-1.06-1.41-2.62-0.93-4.03c0.47-1.41,1.7-2.44,3.17-2.65c16.06-2.38,23.16-10.18,22.34-24.53
								c-1.16-20.33-63-58.56-100-66.22C1314.65,1980.47,1162.35,2019.46,1138.11,2025.77z"></path>
    <line x1="1427.01" x2="1357.69" y1="2082.19" y2="2042.7" fill="#fff"></line>
    <path fill="#030047" d="M1427,2086.15c-0.66,0-1.33-0.17-1.95-0.52l-69.31-39.49c-1.9-1.08-2.56-3.49-1.48-5.39
								c1.08-1.9,3.49-2.56,5.39-1.48l69.31,39.49c1.9,1.08,2.56,3.49,1.48,5.39C1429.71,2085.43,1428.38,2086.15,1427,2086.15z"></path>
    <g>
      <line x1="1422.72" x2="1345.38" y1="2124.37" y2="2082.19" fill="#fff"></line>
      <path fill="#030047" d="M1422.72,2128.33c-0.64,0-1.29-0.16-1.89-0.48l-77.34-42.18c-1.91-1.04-2.62-3.45-1.57-5.36
								c1.04-1.91,3.44-2.62,5.36-1.58l77.34,42.18c1.91,1.04,2.62,3.45,1.57,5.36C1425.47,2127.58,1424.11,2128.33,1422.72,2128.33
								z"></path>
    </g>
    <g>
      <line x1="1402.95" x2="1345.38" y1="2150.74" y2="2118.83" fill="#fff"></line>
      <path fill="#030047" d="M1402.94,2154.69c-0.65,0-1.3-0.16-1.91-0.5l-57.57-31.91c-1.91-1.06-2.6-3.46-1.54-5.37
								c1.07-1.91,3.46-2.6,5.37-1.54l57.57,31.91c1.91,1.06,2.6,3.46,1.54,5.37C1405.68,2153.96,1404.33,2154.69,1402.94,2154.69z"></path>
    </g>
  </g>
  <g>
    <path fill="#ffcc3d" d="M1208.1,2200.55c0,0-71.9,20.49-160.29,45.5H721.38c-1.27-92.62-3.07-239.31-4.4-352.07
							c-1.1-92.27,65.41-171.46,156.47-186.34l57.02-9.32l0.41,339.68l249.9-58.18L1208.1,2200.55z"></path>
  </g>
  <g>
    <path fill="#030047" d="M1047.81,2250c-1.72,0-3.31-1.14-3.8-2.88c-0.59-2.1,0.63-4.28,2.73-4.88
							c77.35-21.88,142.07-40.31,157.03-44.57l-26.37-213.01l-245.62,57.18c-1.18,0.28-2.4,0-3.35-0.75
							c-0.95-0.75-1.5-1.89-1.5-3.09l-0.25-207.92c0-2.18,1.77-3.96,3.95-3.96h0.01c2.18,0,3.95,1.77,3.95,3.95l0.24,202.95
							l245.06-57.05c1.08-0.26,2.24-0.03,3.16,0.61c0.92,0.64,1.52,1.64,1.66,2.76l27.32,220.73c0.24,1.93-0.96,3.75-2.84,4.29
							c0,0-71.9,20.49-160.3,45.5C1048.53,2249.95,1048.17,2250,1047.81,2250z"></path>
  </g>
  <g>
    <path fill="#030047" d="M877.67,2057.7c-1.71,0-3.28-1.11-3.79-2.83c-0.62-2.09,0.57-4.29,2.67-4.91l53.2-15.75
							c2.12-0.62,4.3,0.58,4.91,2.67c0.62,2.09-0.57,4.29-2.67,4.91l-53.2,15.75C878.42,2057.65,878.04,2057.7,877.67,2057.7z"></path>
  </g>
  <g>
    <path fill="#000028" d="M1774.57,2181.68v64.36h-469.69c-15.11,0-27.33-12.23-27.33-27.33v-2.62
								c0-18.99,15.41-34.41,34.36-34.41H1774.57z"></path>
    <path fill="#030047" d="M2044.11,1875.25h-419.93c-22.61,0-42.78,14.21-50.4,35.5l-119.97,335.28h464.6
								c27.62,0,52.26-17.35,61.57-43.36l99.3-277.49C2087.98,1900.85,2069.95,1875.25,2044.11,1875.25z"></path>
    <g>
      <path fill="#fff" d="M1833.54,2060.64c-3.25,20.34-22.36,36.83-42.7,36.83c-20.38,0-34.21-16.49-30.96-36.83
							c3.25-20.34,22.4-36.83,42.74-36.83C1822.96,2023.81,1836.79,2040.3,1833.54,2060.64z"></path>
    </g>
  </g>
  <g>
    <path fill="#030047" d="M670,1341.76l-172.99,32.35c-18.89,3.56-37.08-8.91-40.65-27.8l-29.07-155.55
						c-3.56-18.89,8.91-37.08,27.8-40.65l172.99-32.35c18.94-3.52,37.13,8.95,40.65,27.85l29.11,155.5
						C701.37,1320.01,688.9,1338.25,670,1341.76z"></path>
  </g>
  <g>
    <path fill="#fff" d="M674.37,1299.42l-186.94,34.97c0,0,6.36-106.34,34.36-111.58c17.8-3.33,40.78,56.87,58.8,54.9
						c10.98-1.2,10.83-39.69,21.68-41.72C624.43,1231.84,674.37,1299.42,674.37,1299.42z"></path>
  </g>
  <g>
    <ellipse cx="574.84" cy="1203.89" fill="#fff" rx="18.08" ry="20.09" transform="rotate(-10.596 574.74 1203.703)"></ellipse>
  </g>
  <g>
    <polygon fill="#fff" points="1327.24 691.74 1256.2 691.74 1256.2 829.46 1154.81 829.46 1154.81 691.74 1083.77 691.74 1205.51 539.77"></polygon>
  </g>
  <g>
    <circle cx="2085.5" cy="1098.59" r="135.23" fill="#ffcc3d"></circle>
  </g>
  <g>
    <path fill="#fff" d="M2134.43,1112.99l-57.22,39.1c-15.13,10.34-35.66-0.5-35.66-18.82v-78.2c0-18.32,20.53-29.16,35.66-18.82
					l57.22,39.1C2147.67,1084.4,2147.67,1103.94,2134.43,1112.99z"></path>
  </g>
  <g opacity=".4">
    <path fill="#fff" d="M590.59,865.23c-1.03,0-2.07-0.4-2.85-1.21c-19.62-20.35-30.47-49.36-29-77.59
				c1.48-28.24,15.27-55.96,36.91-74.16c1.67-1.4,4.16-1.19,5.57,0.48c1.4,1.67,1.19,4.16-0.48,5.57
				c-19.98,16.81-32.73,42.43-34.1,68.52c-1.36,26.09,8.66,52.89,26.79,71.69c1.51,1.57,1.47,4.07-0.1,5.59
				C592.57,864.87,591.58,865.23,590.59,865.23z"></path>
  </g>
  <g opacity=".4">
    <path fill="#fff" d="M848.42,1919.71c-3.29,0-6.64-0.79-9.75-2.35c-5.19-2.61-9.08-7.05-10.67-12.2
				c-1.81-5.83-0.9-11.59-0.03-17.16c0.23-1.46,0.46-2.92,0.63-4.37c0.31-2.56,0.92-11.15-4.02-14.29c-2.38-1.51-5.59-1.54-9.3-1.58
				c-3.57-0.03-7.62-0.07-11.41-1.65c-9.84-4.1-12.97-16.27-10.33-25.67c2.53-8.99,9.22-16.05,14.6-21.73
				c1.5-1.59,4.01-1.65,5.59-0.15c1.59,1.5,1.65,4,0.15,5.59c-5.03,5.31-10.73,11.33-12.73,18.44c-1.68,5.97,0.24,13.92,5.77,16.23
				c2.36,0.99,5.32,1.01,8.44,1.04c4.3,0.04,9.18,0.09,13.47,2.81c6.06,3.84,8.84,11.83,7.64,21.9c-0.19,1.55-0.43,3.1-0.67,4.66
				c-0.77,4.89-1.5,9.51-0.23,13.59c0.96,3.1,3.39,5.82,6.66,7.47c3.28,1.65,6.91,1.97,9.98,0.89c2.06-0.73,4.32,0.35,5.04,2.41
				c0.73,2.06-0.35,4.32-2.41,5.04C852.79,1919.36,850.62,1919.71,848.42,1919.71z"></path>
  </g>
  <g opacity=".4">
    <path fill="#fff" d="M1021.1,1902c-1.51,0-2.94-0.87-3.6-2.33c-0.9-1.99-0.01-4.33,1.98-5.23c4.06-1.83,8.66-3.9,11.31-7.29
				c1.99-2.54,2.74-6.84,0.64-8.94c-0.94-0.94-2.53-1.61-4.21-2.32c-2.69-1.13-5.72-2.41-7.82-5.37c-2.95-4.17-2.7-10.07,0.7-16.17
				c0.49-0.88,1.01-1.75,1.54-2.61c1.53-2.52,2.98-4.91,3.19-7.26c0.15-1.65-0.49-3.42-1.75-4.87c-1.26-1.45-2.93-2.33-4.59-2.41
				c-2.18-0.11-3.86-1.96-3.75-4.14c0.1-2.18,2.05-3.89,4.14-3.75c3.79,0.19,7.49,2.05,10.16,5.12c2.67,3.06,4,6.99,3.66,10.77
				c-0.38,4.18-2.47,7.62-4.31,10.65c-0.47,0.78-0.95,1.57-1.39,2.36c-1.42,2.54-2.46,5.92-1.15,7.76c0.79,1.12,2.48,1.83,4.43,2.65
				c2.2,0.93,4.7,1.98,6.73,4.01c5.34,5.33,4.19,14.05,0,19.4c-3.85,4.93-9.64,7.53-14.29,9.63
				C1022.2,1901.89,1021.65,1902,1021.1,1902z"></path>
  </g>
  <g opacity=".4">
    <path fill="#fff" d="M1130.82,1966.54c-1.22,0-2.43-0.56-3.2-1.63c-1.29-1.77-0.89-4.24,0.87-5.52
				c4.3-3.13,9.18-6.67,11.51-11.37c1.85-3.75,1.63-9.2-1.66-11.35c-1.43-0.93-3.48-1.34-5.67-1.77c-3.27-0.64-6.98-1.37-9.95-4.14
				c-4.2-3.91-5.25-10.51-2.88-18.1c0.35-1.12,0.75-2.24,1.14-3.37c1.19-3.35,2.31-6.52,1.97-9.44c-0.25-2.12-1.51-4.19-3.47-5.68
				c-1.96-1.48-4.3-2.15-6.4-1.81c-2.12,0.33-4.18-1.13-4.52-3.29c-0.33-2.16,1.14-4.18,3.29-4.52c4.2-0.66,8.74,0.55,12.4,3.33
				s6.04,6.81,6.54,11.06c0.55,4.74-1,9.12-2.37,12.98c-0.37,1.03-0.73,2.06-1.05,3.09c-0.53,1.69-2.04,7.39,0.72,9.96
				c1.33,1.23,3.54,1.67,6.09,2.17c2.7,0.53,5.75,1.13,8.48,2.91c7.1,4.65,7.82,14.57,4.41,21.47c-3.19,6.46-9.16,10.79-13.95,14.27
				C1132.43,1966.29,1131.62,1966.54,1130.82,1966.54z"></path>
  </g>
  <g opacity=".4">
    <path fill="#fff" d="M1291.88,1941.58c-1.95,0-3.85-0.46-5.53-1.36c-3.01-1.63-4.86-4.23-6.49-6.53
				c-0.41-0.56-0.8-1.13-1.22-1.67c-1.48-1.91-3.19-3.04-4.18-2.83c-0.77,0.16-1.74,1.09-2.76,2.08c-1.38,1.33-2.94,2.83-5.16,3.71
				c-5.87,2.33-12.11-1.37-14.8-6.29c-2.4-4.4-2.49-9.39-2.56-13.39c-0.04-2.18,1.7-3.98,3.89-4.02c0.02,0,0.05,0,0.07,0
				c2.15,0,3.92,1.73,3.95,3.89c0.06,3.3,0.12,7.05,1.59,9.73c1.11,2.02,3.44,3.33,4.93,2.74c0.78-0.31,1.67-1.17,2.61-2.07
				c1.62-1.55,3.62-3.48,6.6-4.11c4.18-0.89,8.58,1.2,12.08,5.73c0.48,0.62,0.94,1.26,1.4,1.91c1.25,1.75,2.42,3.4,3.82,4.16
				c0.87,0.48,2.09,0.55,3.24,0.17c1.14-0.37,2.09-1.12,2.53-2.02c0.96-1.96,3.31-2.78,5.29-1.81c1.96,0.96,2.77,3.33,1.81,5.29
				c-1.39,2.83-4.02,5.05-7.22,6.07C1294.49,1941.37,1293.18,1941.58,1291.88,1941.58z"></path>
  </g>
  <g opacity=".4">
    <path fill="#fff" d="M1468.44,1937.1c-2.14,0-4.33-0.41-6.41-1.24c-4.27-1.7-7.64-4.94-9.26-8.91c-1.8-4.42-1.48-9.06-1.19-13.16
				c0.08-1.09,0.15-2.17,0.19-3.25c0.06-1.77-0.02-7.66-3.36-9.4c-1.61-0.83-3.84-0.66-6.44-0.46c-2.75,0.21-5.86,0.45-8.95-0.53
				c-8.09-2.58-11.44-11.94-9.99-19.5c1.34-7.06,5.93-12.84,9.62-17.48c1.35-1.71,3.83-2,5.55-0.64c1.71,1.36,1.99,3.84,0.63,5.55
				c-3.31,4.17-7.06,8.9-8.04,14.04c-0.78,4.11,0.9,9.3,4.63,10.49c1.64,0.52,3.73,0.35,5.94,0.18c3.32-0.26,7.1-0.55,10.7,1.32
				c5.1,2.64,7.87,8.72,7.62,16.66c-0.04,1.17-0.12,2.36-0.21,3.54c-0.25,3.55-0.48,6.9,0.63,9.62c0.81,1.98,2.58,3.64,4.86,4.54
				c2.27,0.91,4.71,0.92,6.65,0.03c1.98-0.89,4.34-0.03,5.23,1.96c0.91,1.99,0.03,4.33-1.96,5.23
				C1472.88,1936.65,1470.69,1937.1,1468.44,1937.1z"></path>
  </g>
  <g opacity=".4">
    <path fill="#fff" d="M1485.67,2081.72c-4.26,0-8.52-1.88-11.7-5.16c-3.2-3.3-4.95-7.64-4.8-11.92c0.17-4.77,2.37-8.88,4.31-12.5
				c0.51-0.96,1.02-1.92,1.5-2.88c0.77-1.59,3.12-7,0.79-9.95c-1.12-1.42-3.24-2.18-5.7-3.06c-2.59-0.93-5.52-1.98-7.94-4.15
				c-6.33-5.67-5.54-15.58-1.12-21.89c4.12-5.9,10.67-9.28,15.93-12c1.95-1.01,4.33-0.24,5.33,1.7c1,1.94,0.25,4.32-1.69,5.33
				c-4.72,2.44-10.08,5.21-13.09,9.51c-2.39,3.43-3,8.85-0.08,11.47c1.27,1.14,3.25,1.85,5.34,2.6c3.14,1.13,6.7,2.41,9.22,5.59
				c3.56,4.5,3.6,11.18,0.12,18.32c-0.51,1.05-1.08,2.1-1.64,3.15c-1.68,3.14-3.27,6.1-3.37,9.04c-0.08,2.14,0.86,4.38,2.57,6.14
				c1.71,1.76,3.77,2.87,6.06,2.76c2.25,0.19,3.96,1.75,3.97,3.94c0.01,2.18-1.76,3.96-3.94,3.97
				C1485.71,2081.72,1485.69,2081.72,1485.67,2081.72z"></path>
  </g>
  <g opacity=".4">
    <path fill="#fff" d="M1648.25,2040.38c-0.68,0-1.37-0.17-2-0.54c-3.69-2.17-6.42-5.97-7.49-10.44c-1.07-4.47-0.36-9.1,1.96-12.7
				c2.57-4.02,6.55-6.42,10.07-8.55c0.93-0.56,1.86-1.13,2.76-1.72c1.48-0.97,6.26-4.43,5.75-8.15c-0.24-1.79-1.68-3.53-3.34-5.54
				c-1.75-2.12-3.74-4.52-4.71-7.62c-2.55-8.1,3.19-16.22,10.2-19.4c6.55-2.97,13.92-2.55,19.83-2.2c2.18,0.13,3.84,2,3.72,4.18
				c-0.13,2.18-2.02,3.81-4.17,3.72c-5.31-0.3-11.33-0.66-16.11,1.51c-3.81,1.73-7.09,6.09-5.91,9.83c0.51,1.63,1.85,3.25,3.26,4.96
				c2.13,2.57,4.53,5.48,5.08,9.51c0.77,5.69-2.6,11.46-9.24,15.82c-0.98,0.64-2,1.26-3.01,1.87c-3.05,1.84-5.92,3.58-7.5,6.05
				c-1.16,1.8-1.5,4.2-0.93,6.59s1.96,4.38,3.81,5.46c1.88,1.11,2.51,3.53,1.41,5.41
				C1650.93,2039.68,1649.61,2040.38,1648.25,2040.38z"></path>
  </g>
  <g opacity=".4">
    <path fill="#fff" d="M1816.9,1809.22c-0.78,0-1.57-0.05-2.36-0.16c-4.55-0.61-8.61-2.94-11.14-6.39
				c-2.82-3.85-3.63-8.44-4.35-12.49c-0.19-1.07-0.38-2.14-0.61-3.18c-0.37-1.72-1.88-7.43-5.54-8.3c-1.74-0.42-3.9,0.29-6.37,1.12
				c-2.6,0.87-5.54,1.86-8.8,1.65c-8.48-0.54-14-8.81-14.44-16.5c-0.41-7.18,2.64-13.9,5.09-19.29c0.91-1.99,3.27-2.86,5.23-1.96
				c1.99,0.9,2.87,3.24,1.96,5.23c-2.2,4.85-4.69,10.34-4.39,15.57c0.24,4.18,3.12,8.81,7.04,9.06c1.59,0.11,3.69-0.56,5.8-1.26
				c3.16-1.06,6.74-2.26,10.7-1.31c5.58,1.33,9.75,6.55,11.44,14.32c0.25,1.15,0.45,2.31,0.66,3.48c0.62,3.51,1.21,6.82,2.94,9.19
				c1.27,1.73,3.39,2.9,5.82,3.23c2.44,0.33,4.79-0.25,6.47-1.58c1.72-1.35,4.2-1.07,5.55,0.64c1.36,1.71,1.08,4.2-0.63,5.55
				C1824.21,1808.03,1820.63,1809.22,1816.9,1809.22z"></path>
  </g>
  <g opacity=".4">
    <path fill="#fff" d="M1886.32,1875.95c-0.27,0-0.55-0.03-0.82-0.09c-4.18-0.88-7.98-3.63-10.41-7.53
				c-2.43-3.9-3.22-8.51-2.18-12.66c1.17-4.63,4.19-8.18,6.85-11.32c0.71-0.83,1.4-1.65,2.07-2.49c1.09-1.39,4.52-6.18,2.86-9.55
				c-0.8-1.63-2.71-2.82-4.92-4.19c-2.34-1.45-4.98-3.1-6.89-5.73c-4.99-6.87-2.14-16.4,3.51-21.63c5.27-4.9,12.39-6.83,18.11-8.38
				c2.1-0.58,4.28,0.68,4.85,2.78c0.57,2.11-0.67,4.28-2.78,4.85c-5.14,1.39-10.95,2.97-14.8,6.54c-3.07,2.84-4.8,8.02-2.5,11.2
				c1,1.38,2.78,2.49,4.67,3.67c2.83,1.76,6.04,3.76,7.83,7.41c2.54,5.15,1.18,11.69-3.74,17.93c-0.73,0.92-1.49,1.82-2.25,2.72
				c-2.31,2.72-4.49,5.28-5.21,8.14c-0.52,2.07-0.08,4.46,1.21,6.54c1.3,2.08,3.25,3.53,5.34,3.97c2.14,0.45,3.5,2.55,3.05,4.68
				C1889.79,1874.67,1888.15,1875.95,1886.32,1875.95z"></path>
  </g>
  <g opacity=".4">
    <path fill="#fff" d="M1222.15,1845.64c-1.96,0-3.84-0.06-5.61-0.12c-2.18-0.07-3.89-1.89-3.82-4.08
				c0.07-2.18,1.63-3.92,4.08-3.82c6.38,0.2,13.61,0.43,20.29-2.25c6.29-2.53,11.47-8.29,11.08-12.34c-0.15-1.62-1.2-3.21-2.41-5.06
				c-1.81-2.75-4.06-6.17-3.6-10.77c0.8-8.02,9.24-13.8,14.19-16.53c1.32-0.73,2.67-1.42,4.03-2.12c4.35-2.23,8.46-4.34,11.34-7.47
				c2.4-2.6,3.62-6.08,3.2-9.07c-0.19-1.33-0.79-3.14-2.58-4.21c-1.87-1.13-2.47-3.56-1.34-5.43c1.13-1.87,3.55-2.48,5.43-1.34
				c3.46,2.09,5.71,5.59,6.31,9.86c0.77,5.36-1.18,11.17-5.2,15.54c-3.83,4.16-8.77,6.7-13.54,9.15c-1.29,0.66-2.57,1.32-3.82,2.01
				c-5.95,3.28-9.84,7.26-10.15,10.39c-0.17,1.73,0.78,3.27,2.34,5.65c1.56,2.38,3.34,5.08,3.68,8.65
				c0.83,8.75-7.63,17.05-16.01,20.42C1233.96,1845.16,1227.73,1845.64,1222.15,1845.64z"></path>
  </g>
  <g opacity=".4">
    <path fill="#fff" d="M780.14,2049.05c-0.37,0-0.74-0.05-1.11-0.16c-4.4-1.29-8.22-4.53-10.5-8.9c-2.27-4.37-2.74-9.36-1.28-13.7
				c1.64-4.87,5.19-8.45,8.33-11.61c0.84-0.85,1.68-1.69,2.48-2.56c1.34-1.46,5.6-6.55,4-10.57c-0.77-1.94-2.79-3.42-5.14-5.15
				c-2.39-1.76-5.11-3.76-6.93-6.73c-4.76-7.74-0.91-17.67,5.56-22.81c6.09-4.84,13.96-6.33,20.29-7.53c2.12-0.41,4.22,1,4.62,3.15
				c0.41,2.14-1,4.21-3.15,4.62c-5.76,1.09-12.28,2.33-16.84,5.96c-3.71,2.94-6.1,8.66-3.75,12.48c1.02,1.65,2.89,3.03,4.88,4.5
				c2.9,2.13,6.18,4.55,7.79,8.58c2.27,5.69,0.26,12.56-5.52,18.85c-0.86,0.94-1.77,1.86-2.68,2.77c-2.77,2.8-5.4,5.44-6.45,8.57
				c-0.78,2.31-0.49,5.05,0.8,7.52c1.29,2.47,3.37,4.28,5.71,4.97c2.09,0.61,3.29,2.81,2.68,4.9
				C783.43,2047.93,781.85,2049.05,780.14,2049.05z"></path>
  </g>
  <g opacity=".4">
    <path fill="#fff" d="M849.87,2029.65c-5.06,0-9.52-2.31-13.1-4.16c-1.94-1-2.7-3.39-1.69-5.33c0.99-1.94,3.37-2.7,5.33-1.7
				c2.99,1.55,6.45,3.32,9.53,3.28c2.38-0.02,4.71-1.53,4.9-3.17c0.1-0.86-0.24-2.08-0.6-3.37c-0.61-2.19-1.37-4.91-0.5-7.86
				c1.21-4.16,5.19-7.08,10.92-8.02c0.78-0.13,1.57-0.23,2.37-0.33c2.18-0.27,4.24-0.53,5.6-1.43c0.88-0.58,1.52-1.63,1.75-2.87
				c0.23-1.24,0.02-2.45-0.6-3.31c-1.27-1.77-0.86-4.24,0.92-5.51c1.79-1.28,4.25-0.86,5.52,0.91c1.86,2.6,2.57,6.01,1.94,9.35
				c-0.62,3.34-2.51,6.27-5.18,8.02c-2.9,1.91-6.12,2.31-8.96,2.67c-0.7,0.09-1.39,0.18-2.08,0.29c-2.44,0.4-4.3,1.38-4.61,2.44
				c-0.23,0.79,0.14,2.12,0.53,3.52c0.52,1.87,1.11,3.99,0.84,6.38c-0.73,6.32-7.03,10.14-12.71,10.18
				C849.95,2029.65,849.91,2029.65,849.87,2029.65z"></path>
  </g>
</svg>
